<?xml version="1.0" encoding="UTF-8"?>
<!DOCTYPE svg PUBLIC "-//W3C//DTD SVG 1.1//EN" "http://www.w3.org/Graphics/SVG/1.1/DTD/svg11.dtd">
<svg xmlns="http://www.w3.org/2000/svg" version="1.1" width="386px" height="312px" style="shape-rendering:geometricPrecision; text-rendering:geometricPrecision; image-rendering:optimizeQuality; fill-rule:evenodd; clip-rule:evenodd" xmlns:xlink="http://www.w3.org/1999/xlink">
<g><path style="opacity:1" fill="#202020" d="M 17.5,-0.5 C 80.8333,-0.5 144.167,-0.5 207.5,-0.5C 207.918,0.221579 208.584,0.721579 209.5,1C 209.167,1.33333 208.833,1.66667 208.5,2C 209.737,2.23209 210.737,2.73209 211.5,3.5C 173.5,3.5 135.5,3.5 97.5,3.5C 72.5,3.5 47.5,3.5 22.5,3.5C 22.1667,3.5 21.8333,3.5 21.5,3.5C 20.4324,2.56552 19.099,2.23219 17.5,2.5C 17.5,1.5 17.5,0.5 17.5,-0.5 Z"/></g>
<g><path style="opacity:1" fill="#2c2c2c" d="M 207.5,-0.5 C 266.833,-0.5 326.167,-0.5 385.5,-0.5C 385.5,77.1667 385.5,154.833 385.5,232.5C 383.364,232.462 382.031,231.795 381.5,230.5C 381.5,154.833 381.5,79.1667 381.5,3.5C 365.833,3.5 350.167,3.5 334.5,3.5C 319.167,3.5 303.833,3.5 288.5,3.5C 262.833,3.5 237.167,3.5 211.5,3.5C 210.737,2.73209 209.737,2.23209 208.5,2C 208.833,1.66667 209.167,1.33333 209.5,1C 208.584,0.721579 207.918,0.221579 207.5,-0.5 Z"/></g>
<g><path style="opacity:1" fill="#734f23" d="M 22.5,4.5 C 27.0323,4.18178 31.3656,4.51511 35.5,5.5C 25.5,5.5 15.5,5.5 5.5,5.5C 5.5,105.167 5.5,204.833 5.5,304.5C 25.5,304.5 45.5,304.5 65.5,304.5C 50.3424,305.496 35.0091,305.83 19.5,305.5C 14.5,305.5 9.5,305.5 4.5,305.5C 4.5,205.167 4.5,104.833 4.5,4.5C 10.5,4.5 16.5,4.5 22.5,4.5 Z"/></g>
<g><path style="opacity:1" fill="#a2884f" d="M 22.5,4.5 C 22.5,4.16667 22.5,3.83333 22.5,3.5C 47.5,3.5 72.5,3.5 97.5,3.5C 105.5,4.16667 113.5,4.83333 121.5,5.5C 121.167,5.5 120.833,5.5 120.5,5.5C 92.1667,5.5 63.8333,5.5 35.5,5.5C 31.3656,4.51511 27.0323,4.18178 22.5,4.5 Z"/></g>
<g><path style="opacity:1" fill="#c9bb79" d="M 97.5,3.5 C 135.5,3.5 173.5,3.5 211.5,3.5C 237.167,3.5 262.833,3.5 288.5,3.5C 277.5,4.16667 266.5,4.83333 255.5,5.5C 210.833,5.5 166.167,5.5 121.5,5.5C 113.5,4.83333 105.5,4.16667 97.5,3.5 Z"/></g>
<g><path style="opacity:1" fill="#a0864f" d="M 288.5,3.5 C 303.833,3.5 319.167,3.5 334.5,3.5C 336.265,4.46138 338.265,4.79472 340.5,4.5C 340.5,4.83333 340.5,5.16667 340.5,5.5C 312.167,5.5 283.833,5.5 255.5,5.5C 266.5,4.83333 277.5,4.16667 288.5,3.5 Z"/></g>
<g><path style="opacity:1" fill="#905f26" d="M 21.5,3.5 C 21.8333,3.5 22.1667,3.5 22.5,3.5C 22.5,3.83333 22.5,4.16667 22.5,4.5C 16.5,4.5 10.5,4.5 4.5,4.5C 4.5,104.833 4.5,205.167 4.5,305.5C 9.5,305.5 14.5,305.5 19.5,305.5C 19.5,305.833 19.5,306.167 19.5,306.5C 14.1667,306.5 8.83333,306.5 3.5,306.5C 3.5,205.5 3.5,104.5 3.5,3.5C 9.5,3.5 15.5,3.5 21.5,3.5 Z"/></g>
<g><path style="opacity:1" fill="#181818" d="M 35.5,5.5 C 63.8333,5.5 92.1667,5.5 120.5,5.5C 121.952,6.30192 123.618,6.80192 125.5,7C 123.618,7.19808 121.952,7.69808 120.5,8.5C 107.833,8.5 95.1667,8.5 82.5,8.5C 68.8333,8.5 55.1667,8.5 41.5,8.5C 30.5,8.5 19.5,8.5 8.5,8.5C 8.5,106.167 8.5,203.833 8.5,301.5C 19.5,301.5 30.5,301.5 41.5,301.5C 55.1667,301.5 68.8333,301.5 82.5,301.5C 141.5,301.5 200.5,301.5 259.5,301.5C 288.5,301.5 317.5,301.5 346.5,301.5C 356.5,301.5 366.5,301.5 376.5,301.5C 376.5,277.167 376.5,252.833 376.5,228.5C 377.5,228.5 378.5,228.5 379.5,228.5C 379.5,253.833 379.5,279.167 379.5,304.5C 368.5,304.5 357.5,304.5 346.5,304.5C 307.167,304.5 267.833,304.5 228.5,304.5C 174.167,304.5 119.833,304.5 65.5,304.5C 45.5,304.5 25.5,304.5 5.5,304.5C 5.5,204.833 5.5,105.167 5.5,5.5C 15.5,5.5 25.5,5.5 35.5,5.5 Z"/></g>
<g><path style="opacity:1" fill="#2a2a2a" d="M 120.5,5.5 C 120.833,5.5 121.167,5.5 121.5,5.5C 166.167,5.5 210.833,5.5 255.5,5.5C 283.833,5.5 312.167,5.5 340.5,5.5C 353.5,5.5 366.5,5.5 379.5,5.5C 379.5,79.8333 379.5,154.167 379.5,228.5C 378.5,228.5 377.5,228.5 376.5,228.5C 376.5,155.167 376.5,81.8333 376.5,8.5C 366.5,8.5 356.5,8.5 346.5,8.5C 331.833,8.5 317.167,8.5 302.5,8.5C 241.833,8.5 181.167,8.5 120.5,8.5C 121.952,7.69808 123.618,7.19808 125.5,7C 123.618,6.80192 121.952,6.30192 120.5,5.5 Z"/></g>
<g><path style="opacity:1" fill="#93642a" d="M 41.5,8.5 C 41.5,8.83333 41.5,9.16667 41.5,9.5C 30.8333,9.5 20.1667,9.5 9.5,9.5C 9.5,106.5 9.5,203.5 9.5,300.5C 19.1667,300.5 28.8333,300.5 38.5,300.5C 39.791,300.263 40.791,300.596 41.5,301.5C 30.5,301.5 19.5,301.5 8.5,301.5C 8.5,203.833 8.5,106.167 8.5,8.5C 19.5,8.5 30.5,8.5 41.5,8.5 Z"/></g>
<g><path style="opacity:1" fill="#936329" d="M 346.5,9.5 C 346.5,9.16667 346.5,8.83333 346.5,8.5C 356.5,8.5 366.5,8.5 376.5,8.5C 376.5,81.8333 376.5,155.167 376.5,228.5C 376.5,252.833 376.5,277.167 376.5,301.5C 366.5,301.5 356.5,301.5 346.5,301.5C 346.5,301.167 346.5,300.833 346.5,300.5C 356.167,300.5 365.833,300.5 375.5,300.5C 375.5,203.5 375.5,106.5 375.5,9.5C 365.833,9.5 356.167,9.5 346.5,9.5 Z"/></g>
<g><path style="opacity:1" fill="#755226" d="M 41.5,9.5 C 48.3543,9.17596 55.021,9.50929 61.5,10.5C 48.1667,10.5 34.8333,10.5 21.5,10.5C 17.8333,10.5 14.1667,10.5 10.5,10.5C 10.5,106.833 10.5,203.167 10.5,299.5C 19.8333,299.5 29.1667,299.5 38.5,299.5C 38.5,299.833 38.5,300.167 38.5,300.5C 28.8333,300.5 19.1667,300.5 9.5,300.5C 9.5,203.5 9.5,106.5 9.5,9.5C 20.1667,9.5 30.8333,9.5 41.5,9.5 Z"/></g>
<g><path style="opacity:1" fill="#a38b53" d="M 41.5,9.5 C 41.5,9.16667 41.5,8.83333 41.5,8.5C 55.1667,8.5 68.8333,8.5 82.5,8.5C 105.833,9.16667 129.167,9.83333 152.5,10.5C 143.5,10.5 134.5,10.5 125.5,10.5C 104.167,10.5 82.8333,10.5 61.5,10.5C 55.021,9.50929 48.3543,9.17596 41.5,9.5 Z"/></g>
<g><path style="opacity:1" fill="#c6b674" d="M 82.5,8.5 C 95.1667,8.5 107.833,8.5 120.5,8.5C 181.167,8.5 241.833,8.5 302.5,8.5C 291.167,9.16667 279.833,9.83333 268.5,10.5C 250.167,10.5 231.833,10.5 213.5,10.5C 193.167,10.5 172.833,10.5 152.5,10.5C 129.167,9.83333 105.833,9.16667 82.5,8.5 Z"/></g>
<g><path style="opacity:1" fill="#a1854d" d="M 302.5,8.5 C 317.167,8.5 331.833,8.5 346.5,8.5C 346.5,8.83333 346.5,9.16667 346.5,9.5C 333.989,9.17145 321.655,9.50478 309.5,10.5C 308.167,10.5 306.833,10.5 305.5,10.5C 293.167,10.5 280.833,10.5 268.5,10.5C 279.833,9.83333 291.167,9.16667 302.5,8.5 Z"/></g>
<g><path style="opacity:1" fill="#7a582c" d="M 309.5,10.5 C 321.655,9.50478 333.989,9.17145 346.5,9.5C 356.167,9.5 365.833,9.5 375.5,9.5C 375.5,106.5 375.5,203.5 375.5,300.5C 365.833,300.5 356.167,300.5 346.5,300.5C 338.981,300.825 331.648,300.492 324.5,299.5C 327.5,299.5 330.5,299.5 333.5,299.5C 347.167,299.5 360.833,299.5 374.5,299.5C 374.5,274.5 374.5,249.5 374.5,224.5C 374.5,188.5 374.5,152.5 374.5,116.5C 374.5,81.1667 374.5,45.8333 374.5,10.5C 352.833,10.5 331.167,10.5 309.5,10.5 Z"/></g>
<g><path style="opacity:1" fill="#161615" d="M 21.5,10.5 C 21.0825,11.2216 20.4158,11.7216 19.5,12C 22.1667,12.6667 22.1667,13.3333 19.5,14C 24.8333,14.6667 24.8333,15.3333 19.5,16C 19.952,17.6124 21.2853,18.6124 23.5,19C 22.5,19.3333 21.5,19.6667 20.5,20C 21.67,21.7547 23.3367,22.7547 25.5,23C 24.1667,23.3333 22.8333,23.6667 21.5,24C 21.952,25.6124 23.2853,26.6124 25.5,27C 24.5,27.3333 23.5,27.6667 22.5,28C 23.8333,28.6667 23.8333,29.3333 22.5,30C 25.5443,30.3589 25.8776,31.0255 23.5,32C 26.1667,32.6667 26.1667,33.3333 23.5,34C 25.3008,34.3173 25.6341,34.984 24.5,36C 31.1667,36.6667 31.1667,37.3333 24.5,38C 25.67,39.7547 27.3367,40.7547 29.5,41C 28.1667,41.3333 26.8333,41.6667 25.5,42C 25.952,43.6124 27.2853,44.6124 29.5,45C 25.5,45.6667 25.5,46.3333 29.5,47C 26.8333,47.6667 26.8333,48.3333 29.5,49C 26.8333,49.6667 26.8333,50.3333 29.5,51C 29.1667,51.3333 28.8333,51.6667 28.5,52C 35.1667,52.6667 35.1667,53.3333 28.5,54C 31.5443,54.3589 31.8776,55.0255 29.5,56C 33.8518,56.4189 34.1851,57.0855 30.5,58C 31.8333,58.6667 31.8333,59.3333 30.5,60C 33.5443,60.3589 33.8776,61.0255 31.5,62C 34.1667,62.6667 34.1667,63.3333 31.5,64C 35.8518,64.4189 36.1851,65.0855 32.5,66C 33.67,67.7547 35.3367,68.7547 37.5,69C 36.1667,69.3333 34.8333,69.6667 33.5,70C 33.952,71.6124 35.2853,72.6124 37.5,73C 33.5,73.6667 33.5,74.3333 37.5,75C 36.8333,75.3333 36.1667,75.6667 35.5,76C 39.8518,76.4189 40.1851,77.0855 36.5,78C 37.8333,78.6667 37.8333,79.3333 36.5,80C 42.1748,80.4641 42.5081,81.1307 37.5,82C 37.952,83.6124 39.2853,84.6124 41.5,85C 37.5,85.6667 37.5,86.3333 41.5,87C 38.8333,87.6667 38.8333,88.3333 41.5,89C 41.1667,90 40.8333,91 40.5,92C 46.1748,92.4641 46.5081,93.1307 41.5,94C 41.952,95.6124 43.2853,96.6124 45.5,97C 41.5,97.6667 41.5,98.3333 45.5,99C 44.8333,99.3333 44.1667,99.6667 43.5,100C 47.8518,100.419 48.1851,101.086 44.5,102C 45.67,103.755 47.3367,104.755 49.5,105C 48.1667,105.333 46.8333,105.667 45.5,106C 45.952,107.612 47.2853,108.612 49.5,109C 46.8333,109.667 46.8333,110.333 49.5,111C 49.1667,111.333 48.8333,111.667 48.5,112C 49.5,112.333 50.5,112.667 51.5,113C 50.0267,113.71 49.3601,114.876 49.5,116.5C 53.8926,116.457 54.2259,116.957 50.5,118C 53.5443,118.359 53.8776,119.026 51.5,120C 55.8518,120.419 56.1851,121.086 52.5,122C 53.67,123.755 55.3367,124.755 57.5,125C 56.1667,125.333 54.8333,125.667 53.5,126C 53.952,127.612 55.2853,128.612 57.5,129C 54.8333,129.667 54.8333,130.333 57.5,131C 57.1667,131.333 56.8333,131.667 56.5,132C 62.1748,132.464 62.5081,133.131 57.5,134C 57.952,135.612 59.2853,136.612 61.5,137C 58.8333,137.667 58.8333,138.333 61.5,139C 61.1667,139.333 60.8333,139.667 60.5,140C 66.1748,140.464 66.5081,141.131 61.5,142C 61.952,143.612 63.2853,144.612 65.5,145C 61.5,145.667 61.5,146.333 65.5,147C 64.8333,147.333 64.1667,147.667 63.5,148C 70.5032,148.497 70.8365,149.163 64.5,150C 65.67,151.755 67.3367,152.755 69.5,153C 65.5,153.667 65.5,154.333 69.5,155C 68.8333,155.333 68.1667,155.667 67.5,156C 71.8518,156.419 72.1851,157.086 68.5,158C 71.5443,158.359 71.8776,159.026 69.5,160C 73.8518,160.419 74.1851,161.086 70.5,162C 73.5443,162.359 73.8776,163.026 71.5,164C 78.5032,164.497 78.8365,165.163 72.5,166C 73.67,167.755 75.3367,168.755 77.5,169C 73.5,169.667 73.5,170.333 77.5,171C 77.1667,171.333 76.8333,171.667 76.5,172C 82.1748,172.464 82.5081,173.131 77.5,174C 77.952,175.612 79.2853,176.612 81.5,177C 78.8333,177.667 78.8333,178.333 81.5,179C 80.8487,180.308 81.5154,181.141 83.5,181.5C 86.8094,193.404 89.8094,205.404 92.5,217.5C 92.5,227.167 92.5,236.833 92.5,246.5C 95.5,246.5 98.5,246.5 101.5,246.5C 101.5,236.5 101.5,226.5 101.5,216.5C 101.5,216.167 101.5,215.833 101.5,215.5C 102.766,216.09 104.099,216.59 105.5,217C 102.833,217.667 102.833,218.333 105.5,219C 105.167,219.333 104.833,219.667 104.5,220C 106.167,220.333 107.833,220.667 109.5,221C 105.5,221.667 105.5,222.333 109.5,223C 108.833,223.333 108.167,223.667 107.5,224C 111.852,224.419 112.185,225.086 108.5,226C 110.167,227 111.833,228 113.5,229C 112.833,229.333 112.167,229.667 111.5,230C 113.226,231.53 115.226,232.53 117.5,233C 113.5,233.667 113.5,234.333 117.5,235C 117.167,235.333 116.833,235.667 116.5,236C 117.448,236.483 118.448,236.649 119.5,236.5C 119.187,240.042 119.521,243.375 120.5,246.5C 122.167,246.5 123.833,246.5 125.5,246.5C 125.389,247.117 125.056,247.617 124.5,248C 126.167,248.333 127.833,248.667 129.5,249C 125.5,249.667 125.5,250.333 129.5,251C 128.833,251.333 128.167,251.667 127.5,252C 129.5,252.333 131.5,252.667 133.5,253C 132.167,253.333 130.833,253.667 129.5,254C 131.5,255 133.5,256 135.5,257C 134.376,257.249 133.376,257.749 132.5,258.5C 133.041,260.535 133.708,262.535 134.5,264.5C 135.011,262.116 136.011,260.116 137.5,258.5C 137.338,260.527 137.505,262.527 138,264.5C 138.333,263.833 138.667,263.167 139,262.5C 139.399,262.728 139.565,263.062 139.5,263.5C 139.918,264.222 140.584,264.722 141.5,265C 138.833,265.667 138.833,266.333 141.5,267C 141.167,267.333 140.833,267.667 140.5,268C 142.167,268.333 143.833,268.667 145.5,269C 141.5,269.667 141.5,270.333 145.5,271C 145.167,271.333 144.833,271.667 144.5,272C 150.175,272.464 150.508,273.131 145.5,274C 146.833,274.333 148.167,274.667 149.5,275C 148.833,275.333 148.167,275.667 147.5,276C 149.5,276.333 151.5,276.667 153.5,277C 148.167,277.667 148.167,278.333 153.5,279C 152.833,279.333 152.167,279.667 151.5,280C 158.503,280.497 158.837,281.163 152.5,282C 153.716,283.74 155.382,284.74 157.5,285C 157.167,285.333 156.833,285.667 156.5,286C 158.167,286.333 159.833,286.667 161.5,287C 157.5,287.667 157.5,288.333 161.5,289C 161.167,289.333 160.833,289.667 160.5,290C 162.167,290.333 163.833,290.667 165.5,291C 161.5,291.667 161.5,292.333 165.5,293C 165.167,293.333 164.833,293.667 164.5,294C 170.175,294.464 170.508,295.131 165.5,296C 166.833,296.333 168.167,296.667 169.5,297C 168.833,297.333 168.167,297.667 167.5,298C 169.708,298.191 171.708,298.691 173.5,299.5C 157.167,299.5 140.833,299.5 124.5,299.5C 95.8333,299.5 67.1667,299.5 38.5,299.5C 29.1667,299.5 19.8333,299.5 10.5,299.5C 10.5,203.167 10.5,106.833 10.5,10.5C 14.1667,10.5 17.8333,10.5 21.5,10.5 Z"/></g>
<g><path style="opacity:1" fill="#1c1c1c" d="M 21.5,10.5 C 34.8333,10.5 48.1667,10.5 61.5,10.5C 82.8333,10.5 104.167,10.5 125.5,10.5C 124.391,11.29 123.058,11.79 121.5,12C 121.952,13.6124 123.285,14.6124 125.5,15C 121.5,15.6667 121.5,16.3333 125.5,17C 122.833,17.6667 122.833,18.3333 125.5,19C 122.833,19.6667 122.833,20.3333 125.5,21C 125.167,21.3333 124.833,21.6667 124.5,22C 128.5,22.6667 128.5,23.3333 124.5,24C 125.67,25.7547 127.337,26.7547 129.5,27C 128.167,27.3333 126.833,27.6667 125.5,28C 125.952,29.6124 127.285,30.6124 129.5,31C 126.833,31.6667 126.833,32.3333 129.5,33C 126.833,33.6667 126.833,34.3333 129.5,35C 129.167,35.3333 128.833,35.6667 128.5,36C 135.167,36.6667 135.167,37.3333 128.5,38C 129.67,39.7547 131.337,40.7547 133.5,41C 132.5,41.3333 131.5,41.6667 130.5,42C 131.833,42.6667 131.833,43.3333 130.5,44C 133.544,44.3589 133.878,45.0255 131.5,46C 134.167,46.6667 134.167,47.3333 131.5,48C 135.852,48.4189 136.185,49.0855 132.5,50C 133.67,51.7547 135.337,52.7547 137.5,53C 136.167,53.3333 134.833,53.6667 133.5,54C 134.416,54.2784 135.082,54.7784 135.5,55.5C 134.624,55.3691 133.957,55.7025 133.5,56.5C 135.864,63.2646 138.198,69.9313 140.5,76.5C 141.833,76.5 143.167,76.5 144.5,76.5C 145.209,77.404 146.209,77.7373 147.5,77.5C 147.5,78.8333 147.5,80.1667 147.5,81.5C 145.952,81.8212 145.285,82.8212 145.5,84.5C 144.833,85.1667 144.167,85.8333 143.5,86.5C 143.285,88.1788 143.952,89.1788 145.5,89.5C 146.738,88.5876 148.072,88.4209 149.5,89C 146.833,89.6667 146.833,90.3333 149.5,91C 149.167,91.3333 148.833,91.6667 148.5,92C 154.175,92.4641 154.508,93.1307 149.5,94C 149.952,95.6124 151.285,96.6124 153.5,97C 150.833,97.6667 150.833,98.3333 153.5,99C 153.167,99.3333 152.833,99.6667 152.5,100C 158.175,100.464 158.508,101.131 153.5,102C 155.301,102.317 155.634,102.984 154.5,104C 156.153,122.439 157.153,140.939 157.5,159.5C 158.29,160.794 159.29,161.961 160.5,163C 166.825,163.5 173.158,163.666 179.5,163.5C 182.5,163.5 185.5,163.5 188.5,163.5C 189.952,164.302 191.618,164.802 193.5,165C 192.167,165.333 190.833,165.667 189.5,166C 189.952,167.612 191.285,168.612 193.5,169C 192.359,169.741 192.359,170.575 193.5,171.5C 194.729,172.281 196.062,172.781 197.5,173C 194.833,173.667 194.833,174.333 197.5,175C 197.167,175.333 196.833,175.667 196.5,176C 202.175,176.464 202.508,177.131 197.5,178C 198.756,178.417 199.423,179.25 199.5,180.5C 197.167,180.5 194.833,180.5 192.5,180.5C 192.5,202.5 192.5,224.5 192.5,246.5C 198.833,246.5 205.167,246.5 211.5,246.5C 211.5,243.833 211.5,241.167 211.5,238.5C 208.375,237.521 205.042,237.187 201.5,237.5C 201.5,230.167 201.5,222.833 201.5,215.5C 204.385,215.806 207.052,215.473 209.5,214.5C 209.5,212.5 209.5,210.5 209.5,208.5C 206.833,208.5 204.167,208.5 201.5,208.5C 201.5,201.5 201.5,194.5 201.5,187.5C 202.833,187.5 204.167,187.5 205.5,187.5C 206.609,188.29 207.942,188.79 209.5,189C 205.5,189.667 205.5,190.333 209.5,191C 209.167,191.333 208.833,191.667 208.5,192C 210.167,192.333 211.833,192.667 213.5,193C 209.5,193.667 209.5,194.333 213.5,195C 212.833,195.333 212.167,195.667 211.5,196C 213.134,196.494 214.801,196.66 216.5,196.5C 216.17,213.342 216.503,230.008 217.5,246.5C 220.167,246.5 222.833,246.5 225.5,246.5C 225.5,236.167 225.5,225.833 225.5,215.5C 227.527,215.338 229.527,215.505 231.5,216C 232.126,216.75 232.626,217.584 233,218.5C 234.353,227.775 234.853,237.109 234.5,246.5C 237.5,246.5 240.5,246.5 243.5,246.5C 242.902,241.187 242.569,235.854 242.5,230.5C 245.598,230.413 245.932,230.913 243.5,232C 245.473,232.495 247.473,232.662 249.5,232.5C 249.5,237.167 249.5,241.833 249.5,246.5C 252.5,246.5 255.5,246.5 258.5,246.5C 259.844,247.984 262.178,248.818 265.5,249C 261.5,249.667 261.5,250.333 265.5,251C 265.167,251.333 264.833,251.667 264.5,252C 266.167,252.333 267.833,252.667 269.5,253C 268.5,253.333 267.5,253.667 266.5,254C 268.714,255.273 271.047,256.273 273.5,257C 272.833,257.333 272.167,257.667 271.5,258C 272.264,260.069 272.764,262.236 273,264.5C 274.044,263.377 274.71,262.044 275,260.5C 275.333,261.5 275.667,262.5 276,263.5C 276.333,263.167 276.667,262.833 277,262.5C 279.48,264.166 282.313,264.999 285.5,265C 280.167,265.667 280.167,266.333 285.5,267C 284.833,267.333 284.167,267.667 283.5,268C 285.5,268.333 287.5,268.667 289.5,269C 285.5,269.667 285.5,270.333 289.5,271C 289.167,271.333 288.833,271.667 288.5,272C 290.167,272.333 291.833,272.667 293.5,273C 291.009,273.626 291.009,274.459 293.5,275.5C 296.107,276.318 298.774,276.818 301.5,277C 299.833,277.333 298.167,277.667 296.5,278C 298.759,279.469 301.759,280.469 305.5,281C 304.167,281.333 302.833,281.667 301.5,282C 303.448,283.618 306.114,284.618 309.5,285C 308.833,285.333 308.167,285.667 307.5,286C 309.5,286.333 311.5,286.667 313.5,287C 309.639,287.569 309.639,288.402 313.5,289.5C 316.107,290.318 318.774,290.818 321.5,291C 319.833,291.333 318.167,291.667 316.5,292C 318.759,293.469 321.759,294.469 325.5,295C 324.5,295.333 323.5,295.667 322.5,296C 326.133,297.651 329.8,298.818 333.5,299.5C 330.5,299.5 327.5,299.5 324.5,299.5C 295.167,299.5 265.833,299.5 236.5,299.5C 215.5,299.5 194.5,299.5 173.5,299.5C 171.708,298.691 169.708,298.191 167.5,298C 168.167,297.667 168.833,297.333 169.5,297C 168.167,296.667 166.833,296.333 165.5,296C 170.508,295.131 170.175,294.464 164.5,294C 164.833,293.667 165.167,293.333 165.5,293C 161.5,292.333 161.5,291.667 165.5,291C 163.833,290.667 162.167,290.333 160.5,290C 160.833,289.667 161.167,289.333 161.5,289C 157.5,288.333 157.5,287.667 161.5,287C 159.833,286.667 158.167,286.333 156.5,286C 156.833,285.667 157.167,285.333 157.5,285C 155.382,284.74 153.716,283.74 152.5,282C 158.837,281.163 158.503,280.497 151.5,280C 152.167,279.667 152.833,279.333 153.5,279C 148.167,278.333 148.167,277.667 153.5,277C 151.5,276.667 149.5,276.333 147.5,276C 148.167,275.667 148.833,275.333 149.5,275C 148.167,274.667 146.833,274.333 145.5,274C 150.508,273.131 150.175,272.464 144.5,272C 144.833,271.667 145.167,271.333 145.5,271C 141.5,270.333 141.5,269.667 145.5,269C 143.833,268.667 142.167,268.333 140.5,268C 140.833,267.667 141.167,267.333 141.5,267C 138.833,266.333 138.833,265.667 141.5,265C 140.584,264.722 139.918,264.222 139.5,263.5C 140.043,263.44 140.376,263.107 140.5,262.5C 137.972,261.184 137.972,260.017 140.5,259C 139.552,258.517 138.552,258.351 137.5,258.5C 136.011,260.116 135.011,262.116 134.5,264.5C 133.708,262.535 133.041,260.535 132.5,258.5C 133.376,257.749 134.376,257.249 135.5,257C 133.5,256 131.5,255 129.5,254C 130.833,253.667 132.167,253.333 133.5,253C 131.5,252.667 129.5,252.333 127.5,252C 128.167,251.667 128.833,251.333 129.5,251C 125.5,250.333 125.5,249.667 129.5,249C 127.833,248.667 126.167,248.333 124.5,248C 125.056,247.617 125.389,247.117 125.5,246.5C 126.5,246.5 127.5,246.5 128.5,246.5C 128.5,227.167 128.5,207.833 128.5,188.5C 131.167,188.5 133.833,188.5 136.5,188.5C 136.5,185.833 136.5,183.167 136.5,180.5C 128.5,180.5 120.5,180.5 112.5,180.5C 111.527,182.948 111.194,185.615 111.5,188.5C 114.167,188.5 116.833,188.5 119.5,188.5C 119.5,204.5 119.5,220.5 119.5,236.5C 118.448,236.649 117.448,236.483 116.5,236C 116.833,235.667 117.167,235.333 117.5,235C 113.5,234.333 113.5,233.667 117.5,233C 115.226,232.53 113.226,231.53 111.5,230C 112.167,229.667 112.833,229.333 113.5,229C 111.833,228 110.167,227 108.5,226C 112.185,225.086 111.852,224.419 107.5,224C 108.167,223.667 108.833,223.333 109.5,223C 105.5,222.333 105.5,221.667 109.5,221C 107.833,220.667 106.167,220.333 104.5,220C 104.833,219.667 105.167,219.333 105.5,219C 102.833,218.333 102.833,217.667 105.5,217C 104.099,216.59 102.766,216.09 101.5,215.5C 104.579,204.019 107.579,192.519 110.5,181C 107.518,180.502 104.518,180.335 101.5,180.5C 100.326,188.873 98.8257,197.207 97,205.5C 94.7006,197.635 93.034,189.635 92,181.5C 89.0635,180.183 86.2301,180.183 83.5,181.5C 81.5154,181.141 80.8487,180.308 81.5,179C 78.8333,178.333 78.8333,177.667 81.5,177C 79.2853,176.612 77.952,175.612 77.5,174C 82.5081,173.131 82.1748,172.464 76.5,172C 76.8333,171.667 77.1667,171.333 77.5,171C 73.5,170.333 73.5,169.667 77.5,169C 75.3367,168.755 73.67,167.755 72.5,166C 78.8365,165.163 78.5032,164.497 71.5,164C 73.8776,163.026 73.5443,162.359 70.5,162C 74.1851,161.086 73.8518,160.419 69.5,160C 71.8776,159.026 71.5443,158.359 68.5,158C 72.1851,157.086 71.8518,156.419 67.5,156C 68.1667,155.667 68.8333,155.333 69.5,155C 65.5,154.333 65.5,153.667 69.5,153C 67.3367,152.755 65.67,151.755 64.5,150C 70.8365,149.163 70.5032,148.497 63.5,148C 64.1667,147.667 64.8333,147.333 65.5,147C 61.5,146.333 61.5,145.667 65.5,145C 63.2853,144.612 61.952,143.612 61.5,142C 66.5081,141.131 66.1748,140.464 60.5,140C 60.8333,139.667 61.1667,139.333 61.5,139C 58.8333,138.333 58.8333,137.667 61.5,137C 59.2853,136.612 57.952,135.612 57.5,134C 62.5081,133.131 62.1748,132.464 56.5,132C 56.8333,131.667 57.1667,131.333 57.5,131C 54.8333,130.333 54.8333,129.667 57.5,129C 55.2853,128.612 53.952,127.612 53.5,126C 54.8333,125.667 56.1667,125.333 57.5,125C 55.3367,124.755 53.67,123.755 52.5,122C 56.1851,121.086 55.8518,120.419 51.5,120C 53.8776,119.026 53.5443,118.359 50.5,118C 54.2259,116.957 53.8926,116.457 49.5,116.5C 49.3601,114.876 50.0267,113.71 51.5,113C 50.5,112.667 49.5,112.333 48.5,112C 48.8333,111.667 49.1667,111.333 49.5,111C 46.8333,110.333 46.8333,109.667 49.5,109C 47.2853,108.612 45.952,107.612 45.5,106C 46.8333,105.667 48.1667,105.333 49.5,105C 47.3367,104.755 45.67,103.755 44.5,102C 48.1851,101.086 47.8518,100.419 43.5,100C 44.1667,99.6667 44.8333,99.3333 45.5,99C 41.5,98.3333 41.5,97.6667 45.5,97C 43.2853,96.6124 41.952,95.6124 41.5,94C 46.5081,93.1307 46.1748,92.4641 40.5,92C 40.8333,91 41.1667,90 41.5,89C 38.8333,88.3333 38.8333,87.6667 41.5,87C 37.5,86.3333 37.5,85.6667 41.5,85C 39.2853,84.6124 37.952,83.6124 37.5,82C 42.5081,81.1307 42.1748,80.4641 36.5,80C 37.8333,79.3333 37.8333,78.6667 36.5,78C 40.1851,77.0855 39.8518,76.4189 35.5,76C 36.1667,75.6667 36.8333,75.3333 37.5,75C 33.5,74.3333 33.5,73.6667 37.5,73C 35.2853,72.6124 33.952,71.6124 33.5,70C 34.8333,69.6667 36.1667,69.3333 37.5,69C 35.3367,68.7547 33.67,67.7547 32.5,66C 36.1851,65.0855 35.8518,64.4189 31.5,64C 34.1667,63.3333 34.1667,62.6667 31.5,62C 33.8776,61.0255 33.5443,60.3589 30.5,60C 31.8333,59.3333 31.8333,58.6667 30.5,58C 34.1851,57.0855 33.8518,56.4189 29.5,56C 31.8776,55.0255 31.5443,54.3589 28.5,54C 35.1667,53.3333 35.1667,52.6667 28.5,52C 28.8333,51.6667 29.1667,51.3333 29.5,51C 26.8333,50.3333 26.8333,49.6667 29.5,49C 26.8333,48.3333 26.8333,47.6667 29.5,47C 25.5,46.3333 25.5,45.6667 29.5,45C 27.2853,44.6124 25.952,43.6124 25.5,42C 26.8333,41.6667 28.1667,41.3333 29.5,41C 27.3367,40.7547 25.67,39.7547 24.5,38C 31.1667,37.3333 31.1667,36.6667 24.5,36C 25.6341,34.984 25.3008,34.3173 23.5,34C 26.1667,33.3333 26.1667,32.6667 23.5,32C 25.8776,31.0255 25.5443,30.3589 22.5,30C 23.8333,29.3333 23.8333,28.6667 22.5,28C 23.5,27.6667 24.5,27.3333 25.5,27C 23.2853,26.6124 21.952,25.6124 21.5,24C 22.8333,23.6667 24.1667,23.3333 25.5,23C 23.3367,22.7547 21.67,21.7547 20.5,20C 21.5,19.6667 22.5,19.3333 23.5,19C 21.2853,18.6124 19.952,17.6124 19.5,16C 24.8333,15.3333 24.8333,14.6667 19.5,14C 22.1667,13.3333 22.1667,12.6667 19.5,12C 20.4158,11.7216 21.0825,11.2216 21.5,10.5 Z"/></g>
<g><path style="opacity:1" fill="#242323" d="M 125.5,10.5 C 134.5,10.5 143.5,10.5 152.5,10.5C 172.833,10.5 193.167,10.5 213.5,10.5C 212.737,11.2679 211.737,11.7679 210.5,12C 213.544,12.3589 213.878,13.0255 211.5,14C 215.852,14.4189 216.185,15.0855 212.5,16C 213.833,16.6667 213.833,17.3333 212.5,18C 215.544,18.3589 215.878,19.0255 213.5,20C 213.952,21.6124 215.285,22.6124 217.5,23C 213.5,23.6667 213.5,24.3333 217.5,25C 214.833,25.6667 214.833,26.3333 217.5,27C 215.813,30.2348 217.146,32.2348 221.5,33C 220.5,33.3333 219.5,33.6667 218.5,34C 219.833,34.6667 219.833,35.3333 218.5,36C 221.544,36.3589 221.878,37.0255 219.5,38C 221.301,38.3173 221.634,38.984 220.5,40C 221.5,40.3333 222.5,40.6667 223.5,41C 222.027,41.7096 221.36,42.8762 221.5,44.5C 225.893,44.4568 226.226,44.9568 222.5,46C 225.544,46.3589 225.878,47.0255 223.5,48C 224.167,48.3333 224.833,48.6667 225.5,49C 224.359,49.7412 224.359,50.5745 225.5,51.5C 226.729,52.2811 228.062,52.7811 229.5,53C 225.5,53.6667 225.5,54.3333 229.5,55C 225.5,55.6667 225.5,56.3333 229.5,57C 226.833,57.6667 226.833,58.3333 229.5,59C 229.167,59.3333 228.833,59.6667 228.5,60C 234.175,60.4641 234.508,61.1307 229.5,62C 229.952,63.6124 231.285,64.6124 233.5,65C 230.833,65.6667 230.833,66.3333 233.5,67C 233.167,67.3333 232.833,67.6667 232.5,68C 239.134,68.8232 239.134,69.3232 232.5,69.5C 231.596,70.209 231.263,71.209 231.5,72.5C 232.659,73.7403 233.659,75.0736 234.5,76.5C 235.167,76.5 235.833,76.5 236.5,76.5C 238.199,76.3398 239.866,76.5065 241.5,77C 240.552,77.4828 239.552,77.6495 238.5,77.5C 235.662,79.3059 235.995,80.3059 239.5,80.5C 241.698,80.4088 242.031,81.0755 240.5,82.5C 239.662,82.8417 239.328,83.5084 239.5,84.5C 240.167,85.1667 240.833,85.8333 241.5,86.5C 241.285,88.1788 241.952,89.1788 243.5,89.5C 243.918,90.2216 244.584,90.7216 245.5,91C 245.167,91.3333 244.833,91.6667 244.5,92C 246.167,92.3333 247.833,92.6667 249.5,93C 245.5,93.6667 245.5,94.3333 249.5,95C 246.833,95.6667 246.833,96.3333 249.5,97C 248.829,97.9862 248.829,99.1529 249.5,100.5C 246.236,99.6758 242.902,99.3424 239.5,99.5C 237.833,99.5 236.167,99.5 234.5,99.5C 232.5,99.5 230.5,99.5 228.5,99.5C 226.833,99.5 225.167,99.5 223.5,99.5C 223.666,95.4862 223.499,91.4862 223,87.5C 222.5,85.6667 221.333,84.5 219.5,84C 209.839,83.5002 200.172,83.3335 190.5,83.5C 188.284,84.2026 186.451,85.5359 185,87.5C 184.501,91.4862 184.334,95.4862 184.5,99.5C 181.167,99.5 177.833,99.5 174.5,99.5C 170.167,99.5 165.833,99.5 161.5,99.5C 160.206,100.29 159.039,101.29 158,102.5C 157.5,121.497 157.333,140.497 157.5,159.5C 157.153,140.939 156.153,122.439 154.5,104C 155.634,102.984 155.301,102.317 153.5,102C 158.508,101.131 158.175,100.464 152.5,100C 152.833,99.6667 153.167,99.3333 153.5,99C 150.833,98.3333 150.833,97.6667 153.5,97C 151.285,96.6124 149.952,95.6124 149.5,94C 154.508,93.1307 154.175,92.4641 148.5,92C 148.833,91.6667 149.167,91.3333 149.5,91C 146.833,90.3333 146.833,89.6667 149.5,89C 148.072,88.4209 146.738,88.5876 145.5,89.5C 145.715,87.8212 145.048,86.8212 143.5,86.5C 144.167,85.8333 144.833,85.1667 145.5,84.5C 147.048,84.1788 147.715,83.1788 147.5,81.5C 147.5,80.1667 147.5,78.8333 147.5,77.5C 146.209,77.7373 145.209,77.404 144.5,76.5C 152.016,76.9896 159.349,76.9896 166.5,76.5C 170.849,75.161 175.182,73.8277 179.5,72.5C 185.121,70.678 190.788,69.0114 196.5,67.5C 198.767,66.5769 201.1,65.7436 203.5,65C 208.218,59.6046 207.051,56.1046 200,54.5C 198.93,54.528 198.097,54.8614 197.5,55.5C 193.637,54.6542 189.804,53.6542 186,52.5C 182.515,52.8299 179.348,53.8299 176.5,55.5C 171.783,54.3078 167.45,52.3078 163.5,49.5C 159.006,44.7154 154.006,44.3821 148.5,48.5C 152.189,52.5201 155.855,56.5201 159.5,60.5C 155.315,62.2887 150.981,63.122 146.5,63C 145.29,61.9609 144.29,60.7942 143.5,59.5C 141.812,55.742 139.145,54.4087 135.5,55.5C 135.082,54.7784 134.416,54.2784 133.5,54C 134.833,53.6667 136.167,53.3333 137.5,53C 135.337,52.7547 133.67,51.7547 132.5,50C 136.185,49.0855 135.852,48.4189 131.5,48C 134.167,47.3333 134.167,46.6667 131.5,46C 133.878,45.0255 133.544,44.3589 130.5,44C 131.833,43.3333 131.833,42.6667 130.5,42C 131.5,41.6667 132.5,41.3333 133.5,41C 131.337,40.7547 129.67,39.7547 128.5,38C 135.167,37.3333 135.167,36.6667 128.5,36C 128.833,35.6667 129.167,35.3333 129.5,35C 126.833,34.3333 126.833,33.6667 129.5,33C 126.833,32.3333 126.833,31.6667 129.5,31C 127.285,30.6124 125.952,29.6124 125.5,28C 126.833,27.6667 128.167,27.3333 129.5,27C 127.337,26.7547 125.67,25.7547 124.5,24C 128.5,23.3333 128.5,22.6667 124.5,22C 124.833,21.6667 125.167,21.3333 125.5,21C 122.833,20.3333 122.833,19.6667 125.5,19C 122.833,18.3333 122.833,17.6667 125.5,17C 121.5,16.3333 121.5,15.6667 125.5,15C 123.285,14.6124 121.952,13.6124 121.5,12C 123.058,11.79 124.391,11.29 125.5,10.5 Z"/></g>
<g><path style="opacity:1" fill="#282828" d="M 213.5,10.5 C 231.833,10.5 250.167,10.5 268.5,10.5C 280.833,10.5 293.167,10.5 305.5,10.5C 304.391,11.29 303.058,11.79 301.5,12C 301.952,13.6124 303.285,14.6124 305.5,15C 302.833,15.6667 302.833,16.3333 305.5,17C 305.167,17.3333 304.833,17.6667 304.5,18C 305.5,18.3333 306.5,18.6667 307.5,19C 306.027,19.7096 305.36,20.8762 305.5,22.5C 309.893,22.4568 310.226,22.9568 306.5,24C 309.544,24.3589 309.878,25.0255 307.5,26C 311.852,26.4189 312.185,27.0855 308.5,28C 309.167,29.3333 310.167,30.3333 311.5,31C 311.167,31.3333 310.833,31.6667 310.5,32C 313.544,32.3589 313.878,33.0255 311.5,34C 313.301,34.3173 313.634,34.984 312.5,36C 318.175,36.4641 318.508,37.1307 313.5,38C 313.952,39.6124 315.285,40.6124 317.5,41C 314.833,41.6667 314.833,42.3333 317.5,43C 317.167,43.3333 316.833,43.6667 316.5,44C 322.175,44.4641 322.508,45.1307 317.5,46C 317.952,47.6124 319.285,48.6124 321.5,49C 320.833,49.3333 320.167,49.6667 319.5,50C 321.226,51.5298 323.226,52.5298 325.5,53C 321.5,53.6667 321.5,54.3333 325.5,55C 324.833,55.3333 324.167,55.6667 323.5,56C 327.852,56.4189 328.185,57.0855 324.5,58C 325.67,59.7547 327.337,60.7547 329.5,61C 326.833,61.6667 326.833,62.3333 329.5,63C 329.167,63.3333 328.833,63.6667 328.5,64C 334.175,64.4641 334.508,65.1307 329.5,66C 331.226,67.5298 333.226,68.5298 335.5,69C 331.5,69.6667 331.5,70.3333 335.5,71C 334.833,71.3333 334.167,71.6667 333.5,72C 334.833,72.3333 336.167,72.6667 337.5,73C 334.833,73.6667 334.833,74.3333 337.5,75C 337.167,75.3333 336.833,75.6667 336.5,76C 338.167,76.3333 339.833,76.6667 341.5,77C 337.5,77.6667 337.5,78.3333 341.5,79C 340.833,79.3333 340.167,79.6667 339.5,80C 340.833,80.3333 342.167,80.6667 343.5,81C 340.833,81.6667 340.833,82.3333 343.5,83C 343.167,83.3333 342.833,83.6667 342.5,84C 344.167,84.3333 345.833,84.6667 347.5,85C 346.5,85.3333 345.5,85.6667 344.5,86C 345.67,87.7547 347.337,88.7547 349.5,89C 346.833,89.6667 346.833,90.3333 349.5,91C 349.167,91.3333 348.833,91.6667 348.5,92C 350.167,92.3333 351.833,92.6667 353.5,93C 349.5,93.6667 349.5,94.3333 353.5,95C 353.167,95.3333 352.833,95.6667 352.5,96C 354.167,96.3333 355.833,96.6667 357.5,97C 353.5,97.6667 353.5,98.3333 357.5,99C 356.833,99.3333 356.167,99.6667 355.5,100C 357.5,100.333 359.5,100.667 361.5,101C 356.167,101.667 356.167,102.333 361.5,103C 360.833,103.333 360.167,103.667 359.5,104C 361.5,104.333 363.5,104.667 365.5,105C 364.167,105.333 362.833,105.667 361.5,106C 363.845,107.783 366.512,108.783 369.5,109C 364.167,109.667 364.167,110.333 369.5,111C 368.833,111.333 368.167,111.667 367.5,112C 369.5,112.333 371.5,112.667 373.5,113C 372.167,113.333 370.833,113.667 369.5,114C 370.9,115.438 372.567,116.271 374.5,116.5C 374.5,152.5 374.5,188.5 374.5,224.5C 371.606,224.444 368.939,223.61 366.5,222C 367.5,221.667 368.5,221.333 369.5,221C 365.759,220.469 362.759,219.469 360.5,218C 362.167,217.667 363.833,217.333 365.5,217C 361.603,216.776 357.936,215.776 354.5,214C 355.5,213.667 356.5,213.333 357.5,213C 354.114,212.618 351.448,211.618 349.5,210C 350.833,209.667 352.167,209.333 353.5,209C 351.167,208.667 348.833,208.333 346.5,208C 347.5,207.667 348.5,207.333 349.5,207C 342.833,206.333 342.833,205.667 349.5,205C 345.603,204.776 341.936,203.776 338.5,202C 339.5,201.667 340.5,201.333 341.5,201C 339.833,200.667 338.167,200.333 336.5,200C 337.696,199.346 337.696,198.846 336.5,198.5C 335.817,198.863 335.15,199.196 334.5,199.5C 335.935,193.258 337.602,187.091 339.5,181C 336.518,180.502 333.518,180.335 330.5,180.5C 329.322,188.89 327.822,197.223 326,205.5C 324.206,197.528 322.539,189.528 321,181.5C 318.619,180.565 316.119,180.232 313.5,180.5C 313.423,179.25 312.756,178.417 311.5,178C 312.167,177.667 312.833,177.333 313.5,177C 311.226,176.53 309.226,175.53 307.5,174C 308.833,173.667 310.167,173.333 311.5,173C 308.512,172.783 305.845,171.783 303.5,170C 304.167,169.667 304.833,169.333 305.5,169C 303.226,168.53 301.226,167.53 299.5,166C 300.833,165.667 302.167,165.333 303.5,165C 300.512,164.783 297.845,163.783 295.5,162C 296.167,161.667 296.833,161.333 297.5,161C 295.833,160 294.167,159 292.5,158C 293.5,157.667 294.5,157.333 295.5,157C 292.692,156.981 290.359,155.981 288.5,154C 289.5,153.667 290.5,153.333 291.5,153C 289.5,152 287.5,151 285.5,150C 286.833,149.667 288.167,149.333 289.5,149C 287.5,148.667 285.5,148.333 283.5,148C 284.167,147.667 284.833,147.333 285.5,147C 280.167,146.333 280.167,145.667 285.5,145C 283.833,144.667 282.167,144.333 280.5,144C 280.833,143.667 281.167,143.333 281.5,143C 277.5,142.333 277.5,141.667 281.5,141C 279.226,140.53 277.226,139.53 275.5,138C 276.167,137.667 276.833,137.333 277.5,137C 271.249,134.822 271.249,133.489 277.5,133C 275.167,132.667 272.833,132.333 270.5,132C 271.634,130.984 271.301,130.317 269.5,130C 274.508,129.131 274.175,128.464 268.5,128C 268.833,127.667 269.167,127.333 269.5,127C 265.5,126.333 265.5,125.667 269.5,125C 267.226,124.53 265.226,123.53 263.5,122C 264.167,121.667 264.833,121.333 265.5,121C 263.285,120.612 261.952,119.612 261.5,118C 262.833,117.667 264.167,117.333 265.5,117C 263.5,116.667 261.5,116.333 259.5,116C 261.878,115.026 261.544,114.359 258.5,114C 259.5,113.667 260.5,113.333 261.5,113C 259.226,112.53 257.226,111.53 255.5,110C 257.878,109.026 257.544,108.359 254.5,108C 255.634,106.984 255.301,106.317 253.5,106C 254.167,105.667 254.833,105.333 255.5,105C 254.207,104.51 252.873,104.343 251.5,104.5C 250.833,103.167 250.167,101.833 249.5,100.5C 248.829,99.1529 248.829,97.9862 249.5,97C 246.833,96.3333 246.833,95.6667 249.5,95C 245.5,94.3333 245.5,93.6667 249.5,93C 247.833,92.6667 246.167,92.3333 244.5,92C 244.833,91.6667 245.167,91.3333 245.5,91C 244.584,90.7216 243.918,90.2216 243.5,89.5C 243.715,87.8212 243.048,86.8212 241.5,86.5C 240.833,85.8333 240.167,85.1667 239.5,84.5C 241.424,84.2893 241.757,83.6226 240.5,82.5C 242.031,81.0755 241.698,80.4088 239.5,80.5C 239.443,79.391 239.11,78.391 238.5,77.5C 239.552,77.6495 240.552,77.4828 241.5,77C 239.866,76.5065 238.199,76.3398 236.5,76.5C 235.833,72.5 235.167,72.5 234.5,76.5C 233.659,75.0736 232.659,73.7403 231.5,72.5C 233.796,72.1959 234.129,71.1959 232.5,69.5C 239.134,69.3232 239.134,68.8232 232.5,68C 232.833,67.6667 233.167,67.3333 233.5,67C 230.833,66.3333 230.833,65.6667 233.5,65C 231.285,64.6124 229.952,63.6124 229.5,62C 234.508,61.1307 234.175,60.4641 228.5,60C 228.833,59.6667 229.167,59.3333 229.5,59C 226.833,58.3333 226.833,57.6667 229.5,57C 225.5,56.3333 225.5,55.6667 229.5,55C 225.5,54.3333 225.5,53.6667 229.5,53C 228.062,52.7811 226.729,52.2811 225.5,51.5C 224.359,50.5745 224.359,49.7412 225.5,49C 224.833,48.6667 224.167,48.3333 223.5,48C 225.878,47.0255 225.544,46.3589 222.5,46C 226.226,44.9568 225.893,44.4568 221.5,44.5C 221.36,42.8762 222.027,41.7096 223.5,41C 222.5,40.6667 221.5,40.3333 220.5,40C 221.634,38.984 221.301,38.3173 219.5,38C 221.878,37.0255 221.544,36.3589 218.5,36C 219.833,35.3333 219.833,34.6667 218.5,34C 219.5,33.6667 220.5,33.3333 221.5,33C 217.146,32.2348 215.813,30.2348 217.5,27C 214.833,26.3333 214.833,25.6667 217.5,25C 213.5,24.3333 213.5,23.6667 217.5,23C 215.285,22.6124 213.952,21.6124 213.5,20C 215.878,19.0255 215.544,18.3589 212.5,18C 213.833,17.3333 213.833,16.6667 212.5,16C 216.185,15.0855 215.852,14.4189 211.5,14C 213.878,13.0255 213.544,12.3589 210.5,12C 211.737,11.7679 212.737,11.2679 213.5,10.5 Z"/></g>
<g><path style="opacity:1" fill="#2d2d2d" d="M 305.5,10.5 C 306.833,10.5 308.167,10.5 309.5,10.5C 331.167,10.5 352.833,10.5 374.5,10.5C 374.5,45.8333 374.5,81.1667 374.5,116.5C 372.567,116.271 370.9,115.438 369.5,114C 370.833,113.667 372.167,113.333 373.5,113C 371.5,112.667 369.5,112.333 367.5,112C 368.167,111.667 368.833,111.333 369.5,111C 364.167,110.333 364.167,109.667 369.5,109C 366.512,108.783 363.845,107.783 361.5,106C 362.833,105.667 364.167,105.333 365.5,105C 363.5,104.667 361.5,104.333 359.5,104C 360.167,103.667 360.833,103.333 361.5,103C 356.167,102.333 356.167,101.667 361.5,101C 359.5,100.667 357.5,100.333 355.5,100C 356.167,99.6667 356.833,99.3333 357.5,99C 353.5,98.3333 353.5,97.6667 357.5,97C 355.833,96.6667 354.167,96.3333 352.5,96C 352.833,95.6667 353.167,95.3333 353.5,95C 349.5,94.3333 349.5,93.6667 353.5,93C 351.833,92.6667 350.167,92.3333 348.5,92C 348.833,91.6667 349.167,91.3333 349.5,91C 346.833,90.3333 346.833,89.6667 349.5,89C 347.337,88.7547 345.67,87.7547 344.5,86C 345.5,85.6667 346.5,85.3333 347.5,85C 345.833,84.6667 344.167,84.3333 342.5,84C 342.833,83.6667 343.167,83.3333 343.5,83C 340.833,82.3333 340.833,81.6667 343.5,81C 342.167,80.6667 340.833,80.3333 339.5,80C 340.167,79.6667 340.833,79.3333 341.5,79C 337.5,78.3333 337.5,77.6667 341.5,77C 339.833,76.6667 338.167,76.3333 336.5,76C 336.833,75.6667 337.167,75.3333 337.5,75C 334.833,74.3333 334.833,73.6667 337.5,73C 336.167,72.6667 334.833,72.3333 333.5,72C 334.167,71.6667 334.833,71.3333 335.5,71C 331.5,70.3333 331.5,69.6667 335.5,69C 333.226,68.5298 331.226,67.5298 329.5,66C 334.508,65.1307 334.175,64.4641 328.5,64C 328.833,63.6667 329.167,63.3333 329.5,63C 326.833,62.3333 326.833,61.6667 329.5,61C 327.337,60.7547 325.67,59.7547 324.5,58C 328.185,57.0855 327.852,56.4189 323.5,56C 324.167,55.6667 324.833,55.3333 325.5,55C 321.5,54.3333 321.5,53.6667 325.5,53C 323.226,52.5298 321.226,51.5298 319.5,50C 320.167,49.6667 320.833,49.3333 321.5,49C 319.285,48.6124 317.952,47.6124 317.5,46C 322.508,45.1307 322.175,44.4641 316.5,44C 316.833,43.6667 317.167,43.3333 317.5,43C 314.833,42.3333 314.833,41.6667 317.5,41C 315.285,40.6124 313.952,39.6124 313.5,38C 318.508,37.1307 318.175,36.4641 312.5,36C 313.634,34.984 313.301,34.3173 311.5,34C 313.878,33.0255 313.544,32.3589 310.5,32C 310.833,31.6667 311.167,31.3333 311.5,31C 310.167,30.3333 309.167,29.3333 308.5,28C 312.185,27.0855 311.852,26.4189 307.5,26C 309.878,25.0255 309.544,24.3589 306.5,24C 310.226,22.9568 309.893,22.4568 305.5,22.5C 305.36,20.8762 306.027,19.7096 307.5,19C 306.5,18.6667 305.5,18.3333 304.5,18C 304.833,17.6667 305.167,17.3333 305.5,17C 302.833,16.3333 302.833,15.6667 305.5,15C 303.285,14.6124 301.952,13.6124 301.5,12C 303.058,11.79 304.391,11.29 305.5,10.5 Z"/></g>
<g><path style="opacity:1" fill="#906026" d="M 334.5,3.5 C 350.167,3.5 365.833,3.5 381.5,3.5C 381.5,79.1667 381.5,154.833 381.5,230.5C 381.5,255.833 381.5,281.167 381.5,306.5C 371.833,306.5 362.167,306.5 352.5,306.5C 352.5,306.167 352.5,305.833 352.5,305.5C 361.833,305.5 371.167,305.5 380.5,305.5C 380.5,205.167 380.5,104.833 380.5,4.5C 367.167,4.5 353.833,4.5 340.5,4.5C 338.265,4.79472 336.265,4.46138 334.5,3.5 Z"/></g>
<g><path style="opacity:1" fill="#252523" d="M 162.5,51.5 C 165.312,53.0765 167.978,54.9098 170.5,57C 167.798,57.84 165.132,58.6733 162.5,59.5C 159.704,56.2026 156.704,53.0359 153.5,50C 154.609,49.3623 155.775,48.8623 157,48.5C 158.765,49.6321 160.598,50.6321 162.5,51.5 Z"/></g>
<g><path style="opacity:1" fill="#bca565" d="M 163.5,49.5 C 162.662,49.8417 162.328,50.5084 162.5,51.5C 160.598,50.6321 158.765,49.6321 157,48.5C 155.775,48.8623 154.609,49.3623 153.5,50C 156.704,53.0359 159.704,56.2026 162.5,59.5C 161.391,59.5569 160.391,59.8902 159.5,60.5C 155.855,56.5201 152.189,52.5201 148.5,48.5C 154.006,44.3821 159.006,44.7154 163.5,49.5 Z"/></g>
<g><path style="opacity:1" fill="#906832" d="M 143.5,59.5 C 142.662,59.8417 142.328,60.5084 142.5,61.5C 140.871,60.3747 139.371,59.0414 138,57.5C 137.753,60.8488 138.586,63.8488 140.5,66.5C 140.5,67.1667 140.5,67.8333 140.5,68.5C 140.833,69.8333 141.167,71.1667 141.5,72.5C 140.566,73.5676 140.232,74.901 140.5,76.5C 138.198,69.9313 135.864,63.2646 133.5,56.5C 133.957,55.7025 134.624,55.3691 135.5,55.5C 139.145,54.4087 141.812,55.742 143.5,59.5 Z"/></g>
<g><path style="opacity:1" fill="#272523" d="M 198.5,57.5 C 200.167,57.5 201.833,57.5 203.5,57.5C 203.66,59.1992 203.494,60.8659 203,62.5C 200.328,63.282 197.828,64.282 195.5,65.5C 188.559,66.9278 181.893,68.9278 175.5,71.5C 171.777,72.2967 168.11,73.2967 164.5,74.5C 156.427,75.1318 148.76,74.4651 141.5,72.5C 141.167,71.1667 140.833,69.8333 140.5,68.5C 147.716,66.8677 154.716,64.8677 161.5,62.5C 166.849,60.8278 172.182,59.1611 177.5,57.5C 182.127,55.2881 186.794,55.1214 191.5,57C 189.616,57.2163 187.949,57.883 186.5,59C 187.108,59.8699 187.941,60.3699 189,60.5C 192.154,59.3928 195.32,58.3928 198.5,57.5 Z"/></g>
<g><path style="opacity:1" fill="#847147" d="M 231.5,53.5 C 232.5,53.5 233.5,53.5 234.5,53.5C 234.5,54.5 234.5,55.5 234.5,56.5C 233.5,56.5 232.5,56.5 231.5,56.5C 231.5,55.5 231.5,54.5 231.5,53.5 Z"/></g>
<g><path style="opacity:1" fill="#857146" d="M 236.5,53.5 C 237.5,53.5 238.5,53.5 239.5,53.5C 239.5,54.5 239.5,55.5 239.5,56.5C 238.5,56.5 237.5,56.5 236.5,56.5C 236.5,55.5 236.5,54.5 236.5,53.5 Z"/></g>
<g><path style="opacity:1" fill="#8a784b" d="M 241.5,53.5 C 242.5,53.5 243.5,53.5 244.5,53.5C 244.5,54.5 244.5,55.5 244.5,56.5C 243.5,56.5 242.5,56.5 241.5,56.5C 241.5,55.5 241.5,54.5 241.5,53.5 Z"/></g>
<g><path style="opacity:1" fill="#b3995a" d="M 197.5,55.5 C 198.338,55.8417 198.672,56.5084 198.5,57.5C 195.32,58.3928 192.154,59.3928 189,60.5C 187.941,60.3699 187.108,59.8699 186.5,59C 187.949,57.883 189.616,57.2163 191.5,57C 186.794,55.1214 182.127,55.2881 177.5,57.5C 177.672,56.5084 177.338,55.8417 176.5,55.5C 179.348,53.8299 182.515,52.8299 186,52.5C 189.804,53.6542 193.637,54.6542 197.5,55.5 Z"/></g>
<g><path style="opacity:1" fill="#a9955c" d="M 210.5,56.5 C 211.675,56.281 212.675,56.6143 213.5,57.5C 211.948,58.7979 210.948,58.4646 210.5,56.5 Z"/></g>
<g><path style="opacity:1" fill="#e6dc8f" d="M 163.5,49.5 C 167.45,52.3078 171.783,54.3078 176.5,55.5C 177.338,55.8417 177.672,56.5084 177.5,57.5C 172.182,59.1611 166.849,60.8278 161.5,62.5C 160.167,62.5 159.5,61.8333 159.5,60.5C 160.391,59.8902 161.391,59.5569 162.5,59.5C 165.132,58.6733 167.798,57.84 170.5,57C 167.978,54.9098 165.312,53.0765 162.5,51.5C 162.328,50.5084 162.662,49.8417 163.5,49.5 Z"/></g>
<g><path style="opacity:1" fill="#dac87d" d="M 215.5,58.5 C 217.337,58.6395 217.67,59.3061 216.5,60.5C 215.702,60.0431 215.369,59.3764 215.5,58.5 Z"/></g>
<g><path style="opacity:1" fill="#282521" d="M 142.5,61.5 C 145.327,64.2401 144.66,65.9068 140.5,66.5C 138.586,63.8488 137.753,60.8488 138,57.5C 139.371,59.0414 140.871,60.3747 142.5,61.5 Z"/></g>
<g><path style="opacity:1" fill="#a3925c" d="M 172.5,60.5 C 173.675,60.281 174.675,60.6143 175.5,61.5C 173.948,62.7979 172.948,62.4646 172.5,60.5 Z"/></g>
<g><path style="opacity:1" fill="#c7b775" d="M 219.5,60.5 C 222.548,60.494 223.048,61.494 221,63.5C 219.961,62.7562 219.461,61.7562 219.5,60.5 Z"/></g>
<g><path style="opacity:1" fill="#ae9051" d="M 143.5,59.5 C 144.29,60.7942 145.29,61.9609 146.5,63C 150.981,63.122 155.315,62.2887 159.5,60.5C 159.5,61.8333 160.167,62.5 161.5,62.5C 154.716,64.8677 147.716,66.8677 140.5,68.5C 140.5,67.8333 140.5,67.1667 140.5,66.5C 144.66,65.9068 145.327,64.2401 142.5,61.5C 142.328,60.5084 142.662,59.8417 143.5,59.5 Z"/></g>
<g><path style="opacity:1" fill="#cbb46d" d="M 168.5,62.5 C 170.337,62.6395 170.67,63.3061 169.5,64.5C 168.702,64.0431 168.369,63.3764 168.5,62.5 Z"/></g>
<g><path style="opacity:1" fill="#906933" d="M 197.5,55.5 C 198.097,54.8614 198.93,54.528 200,54.5C 207.051,56.1046 208.218,59.6046 203.5,65C 201.1,65.7436 198.767,66.5769 196.5,67.5C 196.672,66.5084 196.338,65.8417 195.5,65.5C 197.828,64.282 200.328,63.282 203,62.5C 203.494,60.8659 203.66,59.1992 203.5,57.5C 201.833,57.5 200.167,57.5 198.5,57.5C 198.672,56.5084 198.338,55.8417 197.5,55.5 Z"/></g>
<g><path style="opacity:1" fill="#b7a96e" d="M 224.5,62.5 C 226.852,63.5426 227.019,64.8759 225,66.5C 223.232,65.3181 223.065,63.9848 224.5,62.5 Z"/></g>
<g><path style="opacity:1" fill="#d5c178" d="M 163.5,63.5 C 165.337,63.6395 165.67,64.3061 164.5,65.5C 163.702,65.0431 163.369,64.3764 163.5,63.5 Z"/></g>
<g><path style="opacity:1" fill="#b19a5d" d="M 158.5,65.5 C 159.675,65.281 160.675,65.6143 161.5,66.5C 159.948,67.7979 158.948,67.4646 158.5,65.5 Z"/></g>
<g><path style="opacity:1" fill="#beae6e" d="M 227.5,66.5 C 230.548,66.494 231.048,67.494 229,69.5C 227.961,68.7562 227.461,67.7562 227.5,66.5 Z"/></g>
<g><path style="opacity:1" fill="#baa363" d="M 195.5,65.5 C 196.338,65.8417 196.672,66.5084 196.5,67.5C 190.788,69.0114 185.121,70.678 179.5,72.5C 178.432,71.5655 177.099,71.2322 175.5,71.5C 181.893,68.9278 188.559,66.9278 195.5,65.5 Z"/></g>
<g><path style="opacity:1" fill="#bfae6d" d="M 232.5,69.5 C 234.129,71.1959 233.796,72.1959 231.5,72.5C 231.263,71.209 231.596,70.209 232.5,69.5 Z"/></g>
<g><path style="opacity:1" fill="#d3bc72" d="M 205.5,72.5 C 207.337,72.6395 207.67,73.3061 206.5,74.5C 205.702,74.0431 205.369,73.3764 205.5,72.5 Z"/></g>
<g><path style="opacity:1" fill="#cdb56e" d="M 178.5,74.5 C 180.337,74.6395 180.67,75.3061 179.5,76.5C 178.702,76.0431 178.369,75.3764 178.5,74.5 Z"/></g>
<g><path style="opacity:1" fill="#86764b" d="M 195.5,72.5 C 196.5,72.5 197.5,72.5 198.5,72.5C 198.5,73.5 198.5,74.5 198.5,75.5C 197.5,75.5 196.5,75.5 195.5,75.5C 195.5,74.5 195.5,73.5 195.5,72.5 Z"/></g>
<g><path style="opacity:1" fill="#84744a" d="M 200.5,72.5 C 201.5,72.5 202.5,72.5 203.5,72.5C 203.5,73.5 203.5,74.5 203.5,75.5C 202.5,75.5 201.5,75.5 200.5,75.5C 200.5,74.5 200.5,73.5 200.5,72.5 Z"/></g>
<g><path style="opacity:1" fill="#bda462" d="M 141.5,72.5 C 148.76,74.4651 156.427,75.1318 164.5,74.5C 163.048,75.3019 161.382,75.8019 159.5,76C 161.81,76.4966 164.143,76.6633 166.5,76.5C 159.349,76.9896 152.016,76.9896 144.5,76.5C 143.167,76.5 141.833,76.5 140.5,76.5C 140.232,74.901 140.566,73.5676 141.5,72.5 Z"/></g>
<g><path style="opacity:1" fill="#e2d68b" d="M 175.5,71.5 C 177.099,71.2322 178.432,71.5655 179.5,72.5C 175.182,73.8277 170.849,75.161 166.5,76.5C 164.143,76.6633 161.81,76.4966 159.5,76C 161.382,75.8019 163.048,75.3019 164.5,74.5C 168.11,73.2967 171.777,72.2967 175.5,71.5 Z"/></g>
<g><path style="opacity:1" fill="#8e7a4c" d="M 173.5,75.5 C 174.5,75.5 175.5,75.5 176.5,75.5C 176.5,76.5 176.5,77.5 176.5,78.5C 175.5,78.5 174.5,78.5 173.5,78.5C 173.5,77.5 173.5,76.5 173.5,75.5 Z"/></g>
<g><path style="opacity:1" fill="#b9aa6d" d="M 236.5,76.5 C 235.833,76.5 235.167,76.5 234.5,76.5C 235.167,72.5 235.833,72.5 236.5,76.5 Z"/></g>
<g><path style="opacity:1" fill="#d9cd84" d="M 148.5,77.5 C 150.76,78.2376 150.927,79.2376 149,80.5C 148.517,79.552 148.351,78.552 148.5,77.5 Z"/></g>
<g><path style="opacity:1" fill="#c1a865" d="M 169.5,77.5 C 171.337,77.6395 171.67,78.3061 170.5,79.5C 169.702,79.0431 169.369,78.3764 169.5,77.5 Z"/></g>
<g><path style="opacity:1" fill="#a8965e" d="M 238.5,77.5 C 239.11,78.391 239.443,79.391 239.5,80.5C 235.995,80.3059 235.662,79.3059 238.5,77.5 Z"/></g>
<g><path style="opacity:1" fill="#ad9c63" d="M 147.5,81.5 C 147.715,83.1788 147.048,84.1788 145.5,84.5C 145.285,82.8212 145.952,81.8212 147.5,81.5 Z"/></g>
<g><path style="opacity:1" fill="#d3bf77" d="M 240.5,82.5 C 241.757,83.6226 241.424,84.2893 239.5,84.5C 239.328,83.5084 239.662,82.8417 240.5,82.5 Z"/></g>
<g><path style="opacity:1" fill="#302f2a" d="M 190.5,85.5 C 199.506,85.3336 208.506,85.5002 217.5,86C 218.931,86.4652 220.097,87.2986 221,88.5C 221.499,92.1516 221.665,95.8183 221.5,99.5C 220.167,99.5 218.833,99.5 217.5,99.5C 217.768,96.8806 217.435,94.3806 216.5,92C 208.167,91.3333 199.833,91.3333 191.5,92C 191.154,94.9403 190.154,97.4403 188.5,99.5C 187.355,95.6888 187.188,91.6888 188,87.5C 188.995,86.9341 189.828,86.2674 190.5,85.5 Z"/></g>
<g><path style="opacity:1" fill="#c8b977" d="M 143.5,86.5 C 145.048,86.8212 145.715,87.8212 145.5,89.5C 143.952,89.1788 143.285,88.1788 143.5,86.5 Z"/></g>
<g><path style="opacity:1" fill="#dfcd82" d="M 190.5,83.5 C 200.172,83.3335 209.839,83.5002 219.5,84C 221.333,84.5 222.5,85.6667 223,87.5C 223.499,91.4862 223.666,95.4862 223.5,99.5C 225.167,99.5 226.833,99.5 228.5,99.5C 228.389,100.117 228.056,100.617 227.5,101C 221,101.167 214.5,101.333 208,101.5C 201.131,101.497 194.631,100.83 188.5,99.5C 190.154,97.4403 191.154,94.9403 191.5,92C 199.833,91.3333 208.167,91.3333 216.5,92C 217.435,94.3806 217.768,96.8806 217.5,99.5C 218.833,99.5 220.167,99.5 221.5,99.5C 221.665,95.8183 221.499,92.1516 221,88.5C 220.097,87.2986 218.931,86.4652 217.5,86C 208.506,85.5002 199.506,85.3336 190.5,85.5C 190.5,84.8333 190.5,84.1667 190.5,83.5 Z"/></g>
<g><path style="opacity:1" fill="#b4a165" d="M 241.5,86.5 C 243.048,86.8212 243.715,87.8212 243.5,89.5C 241.952,89.1788 241.285,88.1788 241.5,86.5 Z"/></g>
<g><path style="opacity:1" fill="#d4be74" d="M 142.5,91.5 C 144.337,91.6395 144.67,92.3061 143.5,93.5C 142.702,93.0431 142.369,92.3764 142.5,91.5 Z"/></g>
<g><path style="opacity:1" fill="#967e4b" d="M 163.5,92.5 C 164.5,92.5 165.5,92.5 166.5,92.5C 166.5,93.5 166.5,94.5 166.5,95.5C 165.5,95.5 164.5,95.5 163.5,95.5C 163.5,94.5 163.5,93.5 163.5,92.5 Z"/></g>
<g><path style="opacity:1" fill="#977f4c" d="M 168.5,92.5 C 169.5,92.5 170.5,92.5 171.5,92.5C 171.5,93.5 171.5,94.5 171.5,95.5C 170.5,95.5 169.5,95.5 168.5,95.5C 168.5,94.5 168.5,93.5 168.5,92.5 Z"/></g>
<g><path style="opacity:1" fill="#97804c" d="M 173.5,92.5 C 174.5,92.5 175.5,92.5 176.5,92.5C 176.5,93.5 176.5,94.5 176.5,95.5C 175.5,95.5 174.5,95.5 173.5,95.5C 173.5,94.5 173.5,93.5 173.5,92.5 Z"/></g>
<g><path style="opacity:1" fill="#595640" d="M 215.5,94.5 C 208.167,94.5 200.833,94.5 193.5,94.5C 193.5,96.1667 193.5,97.8333 193.5,99.5C 192.539,97.7354 192.205,95.7354 192.5,93.5C 200.352,93.1746 208.018,93.508 215.5,94.5 Z"/></g>
<g><path style="opacity:1" fill="#bba768" d="M 230.5,92.5 C 232.465,92.9483 232.798,93.9483 231.5,95.5C 230.614,94.675 230.281,93.675 230.5,92.5 Z"/></g>
<g><path style="opacity:1" fill="#baa667" d="M 235.5,92.5 C 237.465,92.9483 237.798,93.9483 236.5,95.5C 235.614,94.675 235.281,93.675 235.5,92.5 Z"/></g>
<g><path style="opacity:1" fill="#b9a565" d="M 240.5,92.5 C 242.465,92.9483 242.798,93.9483 241.5,95.5C 240.614,94.675 240.281,93.675 240.5,92.5 Z"/></g>
<g><path style="opacity:1" fill="#222222" d="M 215.5,94.5 C 215.5,96.1667 215.5,97.8333 215.5,99.5C 208.167,99.5 200.833,99.5 193.5,99.5C 193.5,97.8333 193.5,96.1667 193.5,94.5C 200.833,94.5 208.167,94.5 215.5,94.5 Z"/></g>
<g><path style="opacity:1" fill="#d2bb72" d="M 141.5,96.5 C 143.337,96.6395 143.67,97.3061 142.5,98.5C 141.702,98.0431 141.369,97.3764 141.5,96.5 Z"/></g>
<g><path style="opacity:1" fill="#a7874b" d="M 161.5,99.5 C 165.833,99.5 170.167,99.5 174.5,99.5C 174.5,100.167 174.5,100.833 174.5,101.5C 174.5,107.833 174.5,114.167 174.5,120.5C 175.5,120.5 176.5,120.5 177.5,120.5C 177.5,114.5 177.5,108.5 177.5,102.5C 177.909,109.592 178.909,116.592 180.5,123.5C 179.5,123.5 178.5,123.5 177.5,123.5C 177.5,124.833 177.5,126.167 177.5,127.5C 176.5,127.5 175.5,127.5 174.5,127.5C 174.5,126.167 174.5,124.833 174.5,123.5C 173.5,123.5 172.5,123.5 171.5,123.5C 171.5,125.5 171.5,127.5 171.5,129.5C 174.5,129.5 177.5,129.5 180.5,129.5C 179.391,130.29 178.058,130.79 176.5,131C 177.056,131.383 177.389,131.883 177.5,132.5C 178.494,142.319 178.827,152.319 178.5,162.5C 173.637,162.819 168.97,162.486 164.5,161.5C 167.167,161.5 169.833,161.5 172.5,161.5C 172.827,151.652 172.494,141.986 171.5,132.5C 170.206,130.952 169.539,128.952 169.5,126.5C 169.539,124.048 170.206,122.048 171.5,120.5C 172.49,114.355 172.823,108.022 172.5,101.5C 168.833,101.5 165.167,101.5 161.5,101.5C 161.5,100.833 161.5,100.167 161.5,99.5 Z"/></g>
<g><path style="opacity:1" fill="#92652c" d="M 161.5,99.5 C 161.5,100.167 161.5,100.833 161.5,101.5C 161.5,101.833 161.5,102.167 161.5,102.5C 160.883,102.611 160.383,102.944 160,103.5C 159.333,122.167 159.333,140.833 160,159.5C 160.671,160.252 161.504,160.586 162.5,160.5C 162.842,161.338 163.508,161.672 164.5,161.5C 168.97,162.486 173.637,162.819 178.5,162.5C 179.167,162.5 179.5,162.833 179.5,163.5C 173.158,163.666 166.825,163.5 160.5,163C 159.29,161.961 158.29,160.794 157.5,159.5C 157.333,140.497 157.5,121.497 158,102.5C 159.039,101.29 160.206,100.29 161.5,99.5 Z"/></g>
<g><path style="opacity:1" fill="#584930" d="M 161.5,102.5 C 161.5,102.167 161.5,101.833 161.5,101.5C 165.167,101.5 168.833,101.5 172.5,101.5C 172.823,108.022 172.49,114.355 171.5,120.5C 171.5,114.5 171.5,108.5 171.5,102.5C 168.167,102.5 164.833,102.5 161.5,102.5 Z"/></g>
<g><path style="opacity:1" fill="#272623" d="M 174.5,101.5 C 175.791,101.263 176.791,101.596 177.5,102.5C 177.5,108.5 177.5,114.5 177.5,120.5C 176.5,120.5 175.5,120.5 174.5,120.5C 174.5,114.167 174.5,107.833 174.5,101.5 Z"/></g>
<g><path style="opacity:1" fill="#232323" d="M 230.5,102.5 C 231.5,102.5 232.5,102.5 233.5,102.5C 233.5,108.5 233.5,114.5 233.5,120.5C 232.5,120.5 231.5,120.5 230.5,120.5C 230.5,114.5 230.5,108.5 230.5,102.5 Z"/></g>
<g><path style="opacity:1" fill="#252423" d="M 236.5,102.5 C 240.437,102.207 244.27,102.54 248,103.5C 248.667,122.167 248.667,140.833 248,159.5C 244.27,160.46 240.437,160.793 236.5,160.5C 236.5,151.167 236.5,141.833 236.5,132.5C 237.5,132.5 238.5,132.5 239.5,132.5C 239.5,128.5 239.5,124.5 239.5,120.5C 238.5,120.5 237.5,120.5 236.5,120.5C 236.5,114.5 236.5,108.5 236.5,102.5 Z"/></g>
<g><path style="opacity:1" fill="#835c2a" d="M 239.5,99.5 C 242.902,99.3424 246.236,99.6758 249.5,100.5C 250.167,101.833 250.833,103.167 251.5,104.5C 251.667,122.836 251.5,141.17 251,159.5C 250.5,161.333 249.333,162.5 247.5,163C 243.514,163.499 239.514,163.666 235.5,163.5C 237.292,162.691 239.292,162.191 241.5,162C 239.618,161.802 237.952,161.302 236.5,160.5C 240.437,160.793 244.27,160.46 248,159.5C 248.667,140.833 248.667,122.167 248,103.5C 244.27,102.54 240.437,102.207 236.5,102.5C 237.9,101.9 238.9,100.9 239.5,99.5 Z"/></g>
<g><path style="opacity:1" fill="#67593a" d="M 140.5,100.5 C 143.275,100.834 143.941,102.167 142.5,104.5C 140.889,103.68 140.222,102.346 140.5,100.5 Z"/></g>
<g><path style="opacity:1" fill="#232322" d="M 251.5,104.5 C 252.873,104.343 254.207,104.51 255.5,105C 254.833,105.333 254.167,105.667 253.5,106C 255.301,106.317 255.634,106.984 254.5,108C 257.544,108.359 257.878,109.026 255.5,110C 257.226,111.53 259.226,112.53 261.5,113C 260.5,113.333 259.5,113.667 258.5,114C 261.544,114.359 261.878,115.026 259.5,116C 261.5,116.333 263.5,116.667 265.5,117C 264.167,117.333 262.833,117.667 261.5,118C 261.952,119.612 263.285,120.612 265.5,121C 264.833,121.333 264.167,121.667 263.5,122C 265.226,123.53 267.226,124.53 269.5,125C 265.5,125.667 265.5,126.333 269.5,127C 269.167,127.333 268.833,127.667 268.5,128C 274.175,128.464 274.508,129.131 269.5,130C 271.301,130.317 271.634,130.984 270.5,132C 272.833,132.333 275.167,132.667 277.5,133C 271.249,133.489 271.249,134.822 277.5,137C 276.833,137.333 276.167,137.667 275.5,138C 277.226,139.53 279.226,140.53 281.5,141C 277.5,141.667 277.5,142.333 281.5,143C 281.167,143.333 280.833,143.667 280.5,144C 282.167,144.333 283.833,144.667 285.5,145C 280.167,145.667 280.167,146.333 285.5,147C 284.833,147.333 284.167,147.667 283.5,148C 285.5,148.333 287.5,148.667 289.5,149C 288.167,149.333 286.833,149.667 285.5,150C 287.5,151 289.5,152 291.5,153C 290.5,153.333 289.5,153.667 288.5,154C 290.359,155.981 292.692,156.981 295.5,157C 294.5,157.333 293.5,157.667 292.5,158C 294.167,159 295.833,160 297.5,161C 296.833,161.333 296.167,161.667 295.5,162C 297.845,163.783 300.512,164.783 303.5,165C 302.167,165.333 300.833,165.667 299.5,166C 301.226,167.53 303.226,168.53 305.5,169C 304.833,169.333 304.167,169.667 303.5,170C 305.845,171.783 308.512,172.783 311.5,173C 310.167,173.333 308.833,173.667 307.5,174C 309.226,175.53 311.226,176.53 313.5,177C 312.833,177.333 312.167,177.667 311.5,178C 312.756,178.417 313.423,179.25 313.5,180.5C 312.957,180.56 312.624,180.893 312.5,181.5C 315.349,193.229 318.349,204.896 321.5,216.5C 321.5,226.5 321.5,236.5 321.5,246.5C 324.5,246.5 327.5,246.5 330.5,246.5C 330.5,236.5 330.5,226.5 330.5,216.5C 331.833,210.833 333.167,205.167 334.5,199.5C 335.15,199.196 335.817,198.863 336.5,198.5C 337.696,198.846 337.696,199.346 336.5,200C 338.167,200.333 339.833,200.667 341.5,201C 340.5,201.333 339.5,201.667 338.5,202C 341.936,203.776 345.603,204.776 349.5,205C 342.833,205.667 342.833,206.333 349.5,207C 348.5,207.333 347.5,207.667 346.5,208C 348.833,208.333 351.167,208.667 353.5,209C 352.167,209.333 350.833,209.667 349.5,210C 351.448,211.618 354.114,212.618 357.5,213C 356.5,213.333 355.5,213.667 354.5,214C 357.936,215.776 361.603,216.776 365.5,217C 363.833,217.333 362.167,217.667 360.5,218C 362.759,219.469 365.759,220.469 369.5,221C 368.5,221.333 367.5,221.667 366.5,222C 368.939,223.61 371.606,224.444 374.5,224.5C 374.5,249.5 374.5,274.5 374.5,299.5C 360.833,299.5 347.167,299.5 333.5,299.5C 329.8,298.818 326.133,297.651 322.5,296C 323.5,295.667 324.5,295.333 325.5,295C 321.759,294.469 318.759,293.469 316.5,292C 318.167,291.667 319.833,291.333 321.5,291C 318.774,290.818 316.107,290.318 313.5,289.5C 309.639,288.402 309.639,287.569 313.5,287C 311.5,286.667 309.5,286.333 307.5,286C 308.167,285.667 308.833,285.333 309.5,285C 306.114,284.618 303.448,283.618 301.5,282C 302.833,281.667 304.167,281.333 305.5,281C 301.759,280.469 298.759,279.469 296.5,278C 298.167,277.667 299.833,277.333 301.5,277C 298.774,276.818 296.107,276.318 293.5,275.5C 291.009,274.459 291.009,273.626 293.5,273C 291.833,272.667 290.167,272.333 288.5,272C 288.833,271.667 289.167,271.333 289.5,271C 285.5,270.333 285.5,269.667 289.5,269C 287.5,268.667 285.5,268.333 283.5,268C 284.167,267.667 284.833,267.333 285.5,267C 280.167,266.333 280.167,265.667 285.5,265C 282.313,264.999 279.48,264.166 277,262.5C 276.667,262.833 276.333,263.167 276,263.5C 275.667,262.5 275.333,261.5 275,260.5C 274.71,262.044 274.044,263.377 273,264.5C 272.764,262.236 272.264,260.069 271.5,258C 272.167,257.667 272.833,257.333 273.5,257C 271.047,256.273 268.714,255.273 266.5,254C 267.5,253.667 268.5,253.333 269.5,253C 267.833,252.667 266.167,252.333 264.5,252C 264.833,251.667 265.167,251.333 265.5,251C 261.5,250.333 261.5,249.667 265.5,249C 262.178,248.818 259.844,247.984 258.5,246.5C 258.5,240.167 258.5,233.833 258.5,227.5C 261.167,227.5 263.833,227.5 266.5,227.5C 266.5,233.833 266.5,240.167 266.5,246.5C 269.167,246.5 271.833,246.5 274.5,246.5C 274.667,227.497 274.5,208.497 274,189.5C 272.967,182.645 268.967,179.312 262,179.5C 259.516,179.497 257.349,180.163 255.5,181.5C 251.907,184.59 250.241,188.59 250.5,193.5C 249.505,206.323 249.171,219.323 249.5,232.5C 247.473,232.662 245.473,232.495 243.5,232C 245.932,230.913 245.598,230.413 242.5,230.5C 242.462,224.14 241.128,218.14 238.5,212.5C 241.445,204.443 242.278,196.109 241,187.5C 240.167,184 238,181.833 234.5,181C 230.514,180.501 226.514,180.334 222.5,180.5C 220.833,180.5 219.167,180.5 217.5,180.5C 217.5,202.167 217.5,223.833 217.5,245.5C 217.5,245.833 217.5,246.167 217.5,246.5C 216.503,230.008 216.17,213.342 216.5,196.5C 214.801,196.66 213.134,196.494 211.5,196C 212.167,195.667 212.833,195.333 213.5,195C 209.5,194.333 209.5,193.667 213.5,193C 211.833,192.667 210.167,192.333 208.5,192C 208.833,191.667 209.167,191.333 209.5,191C 205.5,190.333 205.5,189.667 209.5,189C 207.942,188.79 206.609,188.29 205.5,187.5C 207.735,187.795 209.735,187.461 211.5,186.5C 211.5,184.5 211.5,182.5 211.5,180.5C 207.5,180.5 203.5,180.5 199.5,180.5C 199.423,179.25 198.756,178.417 197.5,178C 202.508,177.131 202.175,176.464 196.5,176C 196.833,175.667 197.167,175.333 197.5,175C 194.833,174.333 194.833,173.667 197.5,173C 196.062,172.781 194.729,172.281 193.5,171.5C 192.359,170.575 192.359,169.741 193.5,169C 191.285,168.612 189.952,167.612 189.5,166C 190.833,165.667 192.167,165.333 193.5,165C 191.618,164.802 189.952,164.302 188.5,163.5C 200.833,163.5 213.167,163.5 225.5,163.5C 228.833,163.5 232.167,163.5 235.5,163.5C 239.514,163.666 243.514,163.499 247.5,163C 249.333,162.5 250.5,161.333 251,159.5C 251.5,141.17 251.667,122.836 251.5,104.5 Z"/></g>
<g><path style="opacity:1" fill="#b19b5e" d="M 140.5,105.5 C 142.465,105.948 142.798,106.948 141.5,108.5C 140.614,107.675 140.281,106.675 140.5,105.5 Z"/></g>
<g><path style="opacity:1" fill="#21201f" d="M 161.5,102.5 C 164.833,102.5 168.167,102.5 171.5,102.5C 171.5,108.5 171.5,114.5 171.5,120.5C 170.206,122.048 169.539,124.048 169.5,126.5C 169.539,128.952 170.206,130.952 171.5,132.5C 171.5,141.833 171.5,151.167 171.5,160.5C 168.5,160.5 165.5,160.5 162.5,160.5C 161.504,160.586 160.671,160.252 160,159.5C 159.333,140.833 159.333,122.167 160,103.5C 160.383,102.944 160.883,102.611 161.5,102.5 Z"/></g>
<g><path style="opacity:1" fill="#bcaa6a" d="M 143.5,120.5 C 145.465,120.948 145.798,121.948 144.5,123.5C 143.614,122.675 143.281,121.675 143.5,120.5 Z"/></g>
<g><path style="opacity:1" fill="#252421" d="M 180.5,123.5 C 180.5,125.5 180.5,127.5 180.5,129.5C 177.5,129.5 174.5,129.5 171.5,129.5C 171.5,127.5 171.5,125.5 171.5,123.5C 172.5,123.5 173.5,123.5 174.5,123.5C 174.5,124.833 174.5,126.167 174.5,127.5C 175.5,127.5 176.5,127.5 177.5,127.5C 177.5,126.167 177.5,124.833 177.5,123.5C 178.5,123.5 179.5,123.5 180.5,123.5 Z"/></g>
<g><path style="opacity:1" fill="#252524" d="M 227.5,123.5 C 228.5,123.5 229.5,123.5 230.5,123.5C 230.5,124.833 230.5,126.167 230.5,127.5C 231.5,127.5 232.5,127.5 233.5,127.5C 233.5,126.167 233.5,124.833 233.5,123.5C 234.5,123.5 235.5,123.5 236.5,123.5C 236.5,125.5 236.5,127.5 236.5,129.5C 233.5,129.5 230.5,129.5 227.5,129.5C 227.5,127.5 227.5,125.5 227.5,123.5 Z"/></g>
<g><path style="opacity:1" fill="#bba768" d="M 145.5,125.5 C 147.973,125.947 148.14,126.947 146,128.5C 145.517,127.552 145.351,126.552 145.5,125.5 Z"/></g>
<g><path style="opacity:1" fill="#b29d60" d="M 190.5,83.5 C 190.5,84.1667 190.5,84.8333 190.5,85.5C 189.828,86.2674 188.995,86.9341 188,87.5C 187.188,91.6888 187.355,95.6888 188.5,99.5C 194.631,100.83 201.131,101.497 208,101.5C 214.5,101.333 221,101.167 227.5,101C 228.056,100.617 228.389,100.117 228.5,99.5C 230.5,99.5 232.5,99.5 234.5,99.5C 233.552,100.978 232.219,101.978 230.5,102.5C 230.5,108.5 230.5,114.5 230.5,120.5C 230.611,121.117 230.944,121.617 231.5,122C 229.942,122.21 228.609,122.71 227.5,123.5C 227.5,125.5 227.5,127.5 227.5,129.5C 228.609,130.29 229.942,130.79 231.5,131C 230.944,131.383 230.611,131.883 230.5,132.5C 230.5,141.833 230.5,151.167 230.5,160.5C 231.263,161.268 232.263,161.768 233.5,162C 230.635,162.183 227.969,162.683 225.5,163.5C 213.167,163.5 200.833,163.5 188.5,163.5C 185.5,163.5 182.5,163.5 179.5,163.5C 179.5,162.833 179.167,162.5 178.5,162.5C 178.827,152.319 178.494,142.319 177.5,132.5C 177.389,131.883 177.056,131.383 176.5,131C 178.058,130.79 179.391,130.29 180.5,129.5C 180.5,127.5 180.5,125.5 180.5,123.5C 178.909,116.592 177.909,109.592 177.5,102.5C 176.791,101.596 175.791,101.263 174.5,101.5C 174.5,100.833 174.5,100.167 174.5,99.5C 177.833,99.5 181.167,99.5 184.5,99.5C 184.334,95.4862 184.501,91.4862 185,87.5C 186.451,85.5359 188.284,84.2026 190.5,83.5 Z"/></g>
<g><path style="opacity:1" fill="#222222" d="M 227.5,132.5 C 227.5,135.833 227.5,139.167 227.5,142.5C 211.833,142.5 196.167,142.5 180.5,142.5C 180.5,139.167 180.5,135.833 180.5,132.5C 181.5,132.5 182.5,132.5 183.5,132.5C 183.5,128.5 183.5,124.5 183.5,120.5C 182.5,120.5 181.5,120.5 180.5,120.5C 180.5,114.5 180.5,108.5 180.5,102.5C 196.167,102.5 211.833,102.5 227.5,102.5C 227.715,110.57 227.048,118.57 225.5,126.5C 225.539,128.952 226.206,130.952 227.5,132.5 Z"/></g>
<g><path style="opacity:1" fill="#9e8049" d="M 234.5,99.5 C 236.167,99.5 237.833,99.5 239.5,99.5C 238.9,100.9 237.9,101.9 236.5,102.5C 236.5,108.5 236.5,114.5 236.5,120.5C 237.5,120.5 238.5,120.5 239.5,120.5C 239.5,124.5 239.5,128.5 239.5,132.5C 238.5,132.5 237.5,132.5 236.5,132.5C 236.5,141.833 236.5,151.167 236.5,160.5C 237.952,161.302 239.618,161.802 241.5,162C 239.292,162.191 237.292,162.691 235.5,163.5C 232.167,163.5 228.833,163.5 225.5,163.5C 227.969,162.683 230.635,162.183 233.5,162C 232.263,161.768 231.263,161.268 230.5,160.5C 231.5,160.5 232.5,160.5 233.5,160.5C 233.5,151.167 233.5,141.833 233.5,132.5C 232.5,132.5 231.5,132.5 230.5,132.5C 230.611,131.883 230.944,131.383 231.5,131C 229.942,130.79 228.609,130.29 227.5,129.5C 230.5,129.5 233.5,129.5 236.5,129.5C 236.5,127.5 236.5,125.5 236.5,123.5C 235.5,123.5 234.5,123.5 233.5,123.5C 233.5,124.833 233.5,126.167 233.5,127.5C 232.5,127.5 231.5,127.5 230.5,127.5C 230.5,126.167 230.5,124.833 230.5,123.5C 229.5,123.5 228.5,123.5 227.5,123.5C 228.609,122.71 229.942,122.21 231.5,122C 230.944,121.617 230.611,121.117 230.5,120.5C 231.5,120.5 232.5,120.5 233.5,120.5C 233.5,114.5 233.5,108.5 233.5,102.5C 232.5,102.5 231.5,102.5 230.5,102.5C 232.219,101.978 233.552,100.978 234.5,99.5 Z"/></g>
<g><path style="opacity:1" fill="#c2b170" d="M 147.5,129.5 C 149.465,129.948 149.798,130.948 148.5,132.5C 147.614,131.675 147.281,130.675 147.5,129.5 Z"/></g>
<g><path style="opacity:1" fill="#222222" d="M 230.5,132.5 C 231.5,132.5 232.5,132.5 233.5,132.5C 233.5,141.833 233.5,151.167 233.5,160.5C 232.5,160.5 231.5,160.5 230.5,160.5C 230.5,151.167 230.5,141.833 230.5,132.5 Z"/></g>
<g><path style="opacity:1" fill="#99804b" d="M 163.5,133.5 C 164.5,133.5 165.5,133.5 166.5,133.5C 166.5,135.167 166.5,136.833 166.5,138.5C 165.5,138.5 164.5,138.5 163.5,138.5C 163.5,136.833 163.5,135.167 163.5,133.5 Z"/></g>
<g><path style="opacity:1" fill="#e0d489" d="M 150.5,133.5 C 151.573,134.251 151.74,135.251 151,136.5C 149.272,135.648 149.105,134.648 150.5,133.5 Z"/></g>
<g><path style="opacity:1" fill="#cbb46c" d="M 243.5,133.5 C 244.586,133.62 245.253,134.287 245.5,135.5C 245.167,136.167 244.833,136.833 244.5,137.5C 243.571,136.311 243.238,134.978 243.5,133.5 Z"/></g>
<g><path style="opacity:1" fill="#55472e" d="M 171.5,132.5 C 172.494,141.986 172.827,151.652 172.5,161.5C 169.833,161.5 167.167,161.5 164.5,161.5C 163.508,161.672 162.842,161.338 162.5,160.5C 165.5,160.5 168.5,160.5 171.5,160.5C 171.5,151.167 171.5,141.833 171.5,132.5 Z"/></g>
<g><path style="opacity:1" fill="#dfd084" d="M 153.5,137.5 C 155.76,138.238 155.927,139.238 154,140.5C 152.272,139.648 152.105,138.648 153.5,137.5 Z"/></g>
<g><path style="opacity:1" fill="#8a7446" d="M 133.5,141.5 C 134.5,141.5 135.5,141.5 136.5,141.5C 136.5,142.5 136.5,143.5 136.5,144.5C 135.5,144.5 134.5,144.5 133.5,144.5C 133.5,143.5 133.5,142.5 133.5,141.5 Z"/></g>
<g><path style="opacity:1" fill="#877244" d="M 138.5,141.5 C 139.5,141.5 140.5,141.5 141.5,141.5C 141.5,142.5 141.5,143.5 141.5,144.5C 140.5,144.5 139.5,144.5 138.5,144.5C 138.5,143.5 138.5,142.5 138.5,141.5 Z"/></g>
<g><path style="opacity:1" fill="#867043" d="M 143.5,141.5 C 144.5,141.5 145.5,141.5 146.5,141.5C 146.5,142.5 146.5,143.5 146.5,144.5C 145.5,144.5 144.5,144.5 143.5,144.5C 143.5,143.5 143.5,142.5 143.5,141.5 Z"/></g>
<g><path style="opacity:1" fill="#b49a5b" d="M 164.5,141.5 C 165.794,143.048 166.461,145.048 166.5,147.5C 166.167,149.5 165.833,151.5 165.5,153.5C 164.509,149.555 164.176,145.555 164.5,141.5 Z"/></g>
<g><path style="opacity:1" fill="#55503b" d="M 227.5,132.5 C 228.482,135.962 228.815,139.629 228.5,143.5C 224.5,143.5 220.5,143.5 216.5,143.5C 207.833,143.5 199.167,143.5 190.5,143.5C 186.958,143.813 183.625,143.479 180.5,142.5C 196.167,142.5 211.833,142.5 227.5,142.5C 227.5,139.167 227.5,135.833 227.5,132.5 Z"/></g>
<g><path style="opacity:1" fill="#252421" d="M 177.5,132.5 C 177.5,142.167 177.5,151.833 177.5,161.5C 176.5,161.5 175.5,161.5 174.5,161.5C 174.5,151.833 174.5,142.167 174.5,132.5C 175.5,132.5 176.5,132.5 177.5,132.5 Z"/></g>
<g><path style="opacity:1" fill="#efe393" d="M 190.5,143.5 C 199.167,143.5 207.833,143.5 216.5,143.5C 216.167,144.167 215.833,144.833 215.5,145.5C 207.167,145.5 198.833,145.5 190.5,145.5C 190.5,144.833 190.5,144.167 190.5,143.5 Z"/></g>
<g><path style="opacity:1" fill="#ccb46d" d="M 243.5,141.5 C 244.794,143.048 245.461,145.048 245.5,147.5C 245.167,149.5 244.833,151.5 244.5,153.5C 243.509,149.555 243.176,145.555 243.5,141.5 Z"/></g>
<g><path style="opacity:1" fill="#544f3a" d="M 180.5,146.5 C 183.625,145.521 186.958,145.187 190.5,145.5C 198.833,145.5 207.167,145.5 215.5,145.5C 219.833,145.5 224.167,145.5 228.5,145.5C 228.784,147.415 228.451,149.081 227.5,150.5C 227.5,149.167 227.5,147.833 227.5,146.5C 211.833,146.5 196.167,146.5 180.5,146.5 Z"/></g>
<g><path style="opacity:1" fill="#b59f61" d="M 151.5,145.5 C 153.465,145.948 153.798,146.948 152.5,148.5C 151.614,147.675 151.281,146.675 151.5,145.5 Z"/></g>
<g><path style="opacity:1" fill="#202020" d="M 180.5,146.5 C 196.167,146.5 211.833,146.5 227.5,146.5C 227.5,147.833 227.5,149.167 227.5,150.5C 223.5,150.5 219.5,150.5 215.5,150.5C 207.167,150.5 198.833,150.5 190.5,150.5C 187.167,150.5 183.833,150.5 180.5,150.5C 180.5,149.167 180.5,147.833 180.5,146.5 Z"/></g>
<g><path style="opacity:1" fill="#b59f61" d="M 151.5,150.5 C 153.465,150.948 153.798,151.948 152.5,153.5C 151.614,152.675 151.281,151.675 151.5,150.5 Z"/></g>
<g><path style="opacity:1" fill="#efe393" d="M 190.5,150.5 C 198.833,150.5 207.167,150.5 215.5,150.5C 215.611,151.117 215.944,151.617 216.5,152C 212.167,152.167 207.833,152.333 203.5,152.5C 198.778,152.492 194.445,151.825 190.5,150.5 Z"/></g>
<g><path style="opacity:1" fill="#202020" d="M 180.5,153.5 C 196.167,153.5 211.833,153.5 227.5,153.5C 227.5,155.833 227.5,158.167 227.5,160.5C 211.833,160.5 196.167,160.5 180.5,160.5C 180.5,158.167 180.5,155.833 180.5,153.5 Z"/></g>
<g><path style="opacity:1" fill="#c6ae68" d="M 151.5,155.5 C 153.337,155.639 153.67,156.306 152.5,157.5C 151.702,157.043 151.369,156.376 151.5,155.5 Z"/></g>
<g><path style="opacity:1" fill="#c7ad67" d="M 112.5,180.5 C 120.5,180.5 128.5,180.5 136.5,180.5C 136.5,183.167 136.5,185.833 136.5,188.5C 133.833,188.5 131.167,188.5 128.5,188.5C 128.5,207.833 128.5,227.167 128.5,246.5C 127.5,246.5 126.5,246.5 125.5,246.5C 123.833,246.5 122.167,246.5 120.5,246.5C 120.5,226.833 120.5,207.167 120.5,187.5C 117.833,187.5 115.167,187.5 112.5,187.5C 112.5,185.167 112.5,182.833 112.5,180.5 Z"/></g>
<g><path style="opacity:1" fill="#d6c278" d="M 141.5,180.5 C 144.167,180.5 146.833,180.5 149.5,180.5C 149.5,202.5 149.5,224.5 149.5,246.5C 146.833,246.5 144.167,246.5 141.5,246.5C 141.5,224.5 141.5,202.5 141.5,180.5 Z"/></g>
<g><path style="opacity:1" fill="#e3d487" d="M 158.5,180.5 C 161.119,180.232 163.619,180.565 166,181.5C 168.998,192.492 171.831,203.492 174.5,214.5C 173.51,220.31 173.177,226.31 173.5,232.5C 171.13,226.385 169.13,220.051 167.5,213.5C 167.539,212.244 167.039,211.244 166,210.5C 165.5,222.162 165.333,233.829 165.5,245.5C 163.167,245.5 160.833,245.5 158.5,245.5C 158.5,223.833 158.5,202.167 158.5,180.5 Z"/></g>
<g><path style="opacity:1" fill="#f1e696" d="M 176.5,180.5 C 178.833,180.5 181.167,180.5 183.5,180.5C 183.5,202.167 183.5,223.833 183.5,245.5C 181.167,245.5 178.833,245.5 176.5,245.5C 175.344,241.207 174.344,236.874 173.5,232.5C 173.177,226.31 173.51,220.31 174.5,214.5C 174.5,214.833 174.5,215.167 174.5,215.5C 174.709,216.922 175.209,218.255 176,219.5C 176.5,206.504 176.667,193.504 176.5,180.5 Z"/></g>
<g><path style="opacity:1" fill="#f3ea99" d="M 199.5,180.5 C 203.5,180.5 207.5,180.5 211.5,180.5C 211.5,182.5 211.5,184.5 211.5,186.5C 207.833,186.5 204.167,186.5 200.5,186.5C 200.175,194.019 200.508,201.352 201.5,208.5C 204.167,208.5 206.833,208.5 209.5,208.5C 209.5,210.5 209.5,212.5 209.5,214.5C 206.5,214.5 203.5,214.5 200.5,214.5C 200.5,222.5 200.5,230.5 200.5,238.5C 204.167,238.5 207.833,238.5 211.5,238.5C 211.5,241.167 211.5,243.833 211.5,246.5C 205.167,246.5 198.833,246.5 192.5,246.5C 192.5,224.5 192.5,202.5 192.5,180.5C 194.833,180.5 197.167,180.5 199.5,180.5 Z"/></g>
<g><path style="opacity:1" fill="#e6d688" d="M 222.5,180.5 C 223.122,201.397 223.455,222.23 223.5,243C 223.355,243.772 223.022,244.439 222.5,245C 220.866,245.494 219.199,245.66 217.5,245.5C 217.5,223.833 217.5,202.167 217.5,180.5C 219.167,180.5 220.833,180.5 222.5,180.5 Z"/></g>
<g><path style="opacity:1" fill="#bea25f" d="M 258.5,227.5 C 259.568,226.566 260.901,226.232 262.5,226.5C 262.5,224.833 262.5,223.167 262.5,221.5C 260.901,221.768 259.568,221.434 258.5,220.5C 257.822,210.765 257.155,200.932 256.5,191C 256.833,188 257.167,185 257.5,182C 256.906,181.536 256.239,181.369 255.5,181.5C 257.349,180.163 259.516,179.497 262,179.5C 268.967,179.312 272.967,182.645 274,189.5C 274.5,208.497 274.667,227.497 274.5,246.5C 271.833,246.5 269.167,246.5 266.5,246.5C 266.5,240.167 266.5,233.833 266.5,227.5C 263.833,227.5 261.167,227.5 258.5,227.5 Z"/></g>
<g><path style="opacity:1" fill="#b49150" d="M 283.5,180.5 C 287.833,180.5 292.167,180.5 296.5,180.5C 298.025,185.417 296.025,187.417 290.5,186.5C 290.175,194.019 290.508,201.352 291.5,208.5C 293.167,208.5 294.833,208.5 296.5,208.5C 297.052,210.331 297.052,211.997 296.5,213.5C 294.709,214.17 293.042,214.837 291.5,215.5C 290.506,225.319 290.173,235.319 290.5,245.5C 288.167,245.5 285.833,245.5 283.5,245.5C 283.5,223.833 283.5,202.167 283.5,180.5 Z"/></g>
<g><path style="opacity:1" fill="#ccb36c" d="M 255.5,181.5 C 256.239,181.369 256.906,181.536 257.5,182C 257.167,185 256.833,188 256.5,191C 257.155,200.932 257.822,210.765 258.5,220.5C 259.568,221.434 260.901,221.768 262.5,221.5C 262.5,223.167 262.5,224.833 262.5,226.5C 260.901,226.232 259.568,226.566 258.5,227.5C 257.51,233.31 257.177,239.31 257.5,245.5C 255.167,245.5 252.833,245.5 250.5,245.5C 250.5,228.167 250.5,210.833 250.5,193.5C 250.241,188.59 251.907,184.59 255.5,181.5 Z"/></g>
<g><path style="opacity:1" fill="#9f7c42" d="M 296.5,180.5 C 301.84,180.665 305.34,183.332 307,188.5C 308.033,196.539 307.2,204.372 304.5,212C 305.717,214.368 306.551,216.868 307,219.5C 307.999,228.491 308.833,237.491 309.5,246.5C 306.5,246.5 303.5,246.5 300.5,246.5C 300.332,237.152 299.832,227.819 299,218.5C 298.626,217.584 298.126,216.75 297.5,216C 295.527,215.505 293.527,215.338 291.5,215.5C 293.042,214.837 294.709,214.17 296.5,213.5C 297.052,211.997 297.052,210.331 296.5,208.5C 297.966,207.653 298.8,206.32 299,204.5C 299.667,199.167 299.667,193.833 299,188.5C 296.619,187.565 294.119,187.232 291.5,187.5C 291.5,194.5 291.5,201.5 291.5,208.5C 290.508,201.352 290.175,194.019 290.5,186.5C 296.025,187.417 298.025,185.417 296.5,180.5 Z"/></g>
<g><path style="opacity:1" fill="#c4bd7e" d="M 183.5,180.5 C 184.497,202.327 184.831,224.327 184.5,246.5C 181.615,246.806 178.948,246.473 176.5,245.5C 178.833,245.5 181.167,245.5 183.5,245.5C 183.5,223.833 183.5,202.167 183.5,180.5 Z"/></g>
<g><path style="opacity:1" fill="#252523" d="M 258.5,220.5 C 258.333,209.828 258.5,199.161 259,188.5C 261.84,185.629 264.174,185.963 266,189.5C 266.5,199.828 266.666,210.161 266.5,220.5C 263.833,220.5 261.167,220.5 258.5,220.5 Z"/></g>
<g><path style="opacity:1" fill="#242423" d="M 296.5,208.5 C 294.833,208.5 293.167,208.5 291.5,208.5C 291.5,201.5 291.5,194.5 291.5,187.5C 294.119,187.232 296.619,187.565 299,188.5C 299.667,193.833 299.667,199.167 299,204.5C 298.8,206.32 297.966,207.653 296.5,208.5 Z"/></g>
<g><path style="opacity:1" fill="#4d4530" d="M 112.5,180.5 C 112.5,182.833 112.5,185.167 112.5,187.5C 115.167,187.5 117.833,187.5 120.5,187.5C 120.5,207.167 120.5,226.833 120.5,246.5C 119.521,243.375 119.187,240.042 119.5,236.5C 119.5,220.5 119.5,204.5 119.5,188.5C 116.833,188.5 114.167,188.5 111.5,188.5C 111.194,185.615 111.527,182.948 112.5,180.5 Z"/></g>
<g><path style="opacity:1" fill="#5a5740" d="M 211.5,186.5 C 209.735,187.461 207.735,187.795 205.5,187.5C 204.167,187.5 202.833,187.5 201.5,187.5C 201.5,194.5 201.5,201.5 201.5,208.5C 200.508,201.352 200.175,194.019 200.5,186.5C 204.167,186.5 207.833,186.5 211.5,186.5 Z"/></g>
<g><path style="opacity:1" fill="#94682e" d="M 313.5,180.5 C 316.119,180.232 318.619,180.565 321,181.5C 322.539,189.528 324.206,197.528 326,205.5C 327.822,197.223 329.322,188.89 330.5,180.5C 333.518,180.335 336.518,180.502 339.5,181C 337.602,187.091 335.935,193.258 334.5,199.5C 333.167,205.167 331.833,210.833 330.5,216.5C 329.506,225.986 329.173,235.652 329.5,245.5C 327.167,245.5 324.833,245.5 322.5,245.5C 322.827,235.652 322.494,225.986 321.5,216.5C 318.349,204.896 315.349,193.229 312.5,181.5C 312.624,180.893 312.957,180.56 313.5,180.5 Z"/></g>
<g><path style="opacity:1" fill="#9c7338" d="M 70.5,246.5 C 70.6665,235.828 70.4998,225.161 70,214.5C 69.338,216.813 68.838,219.146 68.5,221.5C 66.9811,229.798 65.6478,238.132 64.5,246.5C 62.2188,246.923 60.5521,246.256 59.5,244.5C 59.7143,237.393 59.7143,230.559 59.5,224C 60.0659,223.005 60.7326,222.172 61.5,221.5C 65.0701,208.083 68.0701,194.416 70.5,180.5C 73.1667,180.5 75.8333,180.5 78.5,180.5C 78.5,202.5 78.5,224.5 78.5,246.5C 75.8333,246.5 73.1667,246.5 70.5,246.5 Z"/></g>
<g><path style="opacity:1" fill="#91632a" d="M 61.5,221.5 C 60.7326,222.172 60.0659,223.005 59.5,224C 59.7143,230.559 59.7143,237.393 59.5,244.5C 57.5781,235.327 55.7448,225.993 54,216.5C 53.5002,226.494 53.3335,236.494 53.5,246.5C 50.8333,246.5 48.1667,246.5 45.5,246.5C 45.5,224.5 45.5,202.5 45.5,180.5C 48.1667,180.5 50.8333,180.5 53.5,180.5C 56.1667,194.167 58.8333,207.833 61.5,221.5 Z"/></g>
<g><path style="opacity:1" fill="#76714f" d="M 176.5,180.5 C 176.667,193.504 176.5,206.504 176,219.5C 175.209,218.255 174.709,216.922 174.5,215.5C 175.167,203.833 175.833,192.167 176.5,180.5 Z"/></g>
<g><path style="opacity:1" fill="#b08f4e" d="M 101.5,215.5 C 101.5,215.833 101.5,216.167 101.5,216.5C 100.506,225.986 100.173,235.652 100.5,245.5C 98.1667,245.5 95.8333,245.5 93.5,245.5C 93.8269,235.985 93.4936,226.652 92.5,217.5C 89.8094,205.404 86.8094,193.404 83.5,181.5C 86.2301,180.183 89.0635,180.183 92,181.5C 93.034,189.635 94.7006,197.635 97,205.5C 98.8257,197.207 100.326,188.873 101.5,180.5C 104.518,180.335 107.518,180.502 110.5,181C 107.579,192.519 104.579,204.019 101.5,215.5 Z"/></g>
<g><path style="opacity:1" fill="#816c41" d="M 283.5,180.5 C 283.5,202.167 283.5,223.833 283.5,245.5C 285.833,245.5 288.167,245.5 290.5,245.5C 290.173,235.319 290.506,225.319 291.5,215.5C 291.5,225.833 291.5,236.167 291.5,246.5C 288.5,246.5 285.5,246.5 282.5,246.5C 282.169,224.327 282.503,202.327 283.5,180.5 Z"/></g>
<g><path style="opacity:1" fill="#9b9160" d="M 158.5,180.5 C 158.5,202.167 158.5,223.833 158.5,245.5C 160.833,245.5 163.167,245.5 165.5,245.5C 165.333,233.829 165.5,222.162 166,210.5C 167.039,211.244 167.539,212.244 167.5,213.5C 166.505,224.321 166.172,235.321 166.5,246.5C 163.5,246.5 160.5,246.5 157.5,246.5C 157.169,224.327 157.503,202.327 158.5,180.5 Z"/></g>
<g><path style="opacity:1" fill="#83754c" d="M 250.5,193.5 C 250.5,210.833 250.5,228.167 250.5,245.5C 252.833,245.5 255.167,245.5 257.5,245.5C 257.177,239.31 257.51,233.31 258.5,227.5C 258.5,233.833 258.5,240.167 258.5,246.5C 255.5,246.5 252.5,246.5 249.5,246.5C 249.5,241.833 249.5,237.167 249.5,232.5C 249.171,219.323 249.505,206.323 250.5,193.5 Z"/></g>
<g><path style="opacity:1" fill="#131313" d="M -0.5,-0.5 C 5.5,-0.5 11.5,-0.5 17.5,-0.5C 17.5,0.5 17.5,1.5 17.5,2.5C 19.099,2.23219 20.4324,2.56552 21.5,3.5C 15.5,3.5 9.5,3.5 3.5,3.5C 3.5,104.5 3.5,205.5 3.5,306.5C 8.83333,306.5 14.1667,306.5 19.5,306.5C 73.5,306.5 127.5,306.5 181.5,306.5C 180.391,307.29 179.058,307.79 177.5,308C 178.833,308.333 180.167,308.667 181.5,309C 180.833,309.333 180.167,309.667 179.5,310C 181.708,310.191 183.708,310.691 185.5,311.5C 123.5,311.5 61.5,311.5 -0.5,311.5C -0.5,207.5 -0.5,103.5 -0.5,-0.5 Z"/></g>
<g><path style="opacity:1" fill="#cfbd76" d="M 222.5,180.5 C 226.514,180.334 230.514,180.501 234.5,181C 238,181.833 240.167,184 241,187.5C 242.278,196.109 241.445,204.443 238.5,212.5C 241.128,218.14 242.462,224.14 242.5,230.5C 242.569,235.854 242.902,241.187 243.5,246.5C 240.5,246.5 237.5,246.5 234.5,246.5C 234.853,237.109 234.353,227.775 233,218.5C 232.626,217.584 232.126,216.75 231.5,216C 229.527,215.505 227.527,215.338 225.5,215.5C 225.5,225.833 225.5,236.167 225.5,246.5C 222.833,246.5 220.167,246.5 217.5,246.5C 217.5,246.167 217.5,245.833 217.5,245.5C 219.199,245.66 220.866,245.494 222.5,245C 223.022,244.439 223.355,243.772 223.5,243C 223.455,222.23 223.122,201.397 222.5,180.5 Z"/></g>
<g><path style="opacity:1" fill="#212120" d="M 225.5,187.5 C 228.119,187.232 230.619,187.565 233,188.5C 233.667,194.5 233.667,200.5 233,206.5C 230.865,208.278 228.365,208.945 225.5,208.5C 225.5,201.5 225.5,194.5 225.5,187.5 Z"/></g>
<g><path style="opacity:1" fill="#625e44" d="M 209.5,214.5 C 207.052,215.473 204.385,215.806 201.5,215.5C 201.5,222.833 201.5,230.167 201.5,237.5C 205.042,237.187 208.375,237.521 211.5,238.5C 207.833,238.5 204.167,238.5 200.5,238.5C 200.5,230.5 200.5,222.5 200.5,214.5C 203.5,214.5 206.5,214.5 209.5,214.5 Z"/></g>
<g><path style="opacity:1" fill="#4a3a23" d="M 70.5,246.5 C 69.8333,238.167 69.1667,229.833 68.5,221.5C 68.838,219.146 69.338,216.813 70,214.5C 70.4998,225.161 70.6665,235.828 70.5,246.5 Z"/></g>
<g><path style="opacity:1" fill="#7f683c" d="M 101.5,216.5 C 101.5,226.5 101.5,236.5 101.5,246.5C 98.5,246.5 95.5,246.5 92.5,246.5C 92.5,236.833 92.5,227.167 92.5,217.5C 93.4936,226.652 93.8269,235.985 93.5,245.5C 95.8333,245.5 98.1667,245.5 100.5,245.5C 100.173,235.652 100.506,225.986 101.5,216.5 Z"/></g>
<g><path style="opacity:1" fill="#6f522c" d="M 321.5,216.5 C 322.494,225.986 322.827,235.652 322.5,245.5C 324.833,245.5 327.167,245.5 329.5,245.5C 329.173,235.652 329.506,225.986 330.5,216.5C 330.5,226.5 330.5,236.5 330.5,246.5C 327.5,246.5 324.5,246.5 321.5,246.5C 321.5,236.5 321.5,226.5 321.5,216.5 Z"/></g>
<g><path style="opacity:1" fill="#775327" d="M 340.5,5.5 C 340.5,5.16667 340.5,4.83333 340.5,4.5C 353.833,4.5 367.167,4.5 380.5,4.5C 380.5,104.833 380.5,205.167 380.5,305.5C 371.167,305.5 361.833,305.5 352.5,305.5C 350.265,305.795 348.265,305.461 346.5,304.5C 357.5,304.5 368.5,304.5 379.5,304.5C 379.5,279.167 379.5,253.833 379.5,228.5C 379.5,154.167 379.5,79.8333 379.5,5.5C 366.5,5.5 353.5,5.5 340.5,5.5 Z"/></g>
<g><path style="opacity:1" fill="#473823" d="M 95.5,258.5 C 97.3464,258.222 98.6798,258.889 99.5,260.5C 96.4907,265.761 95.1574,265.095 95.5,258.5 Z"/></g>
<g><path style="opacity:1" fill="#51442c" d="M 114.5,258.5 C 115.552,258.351 116.552,258.517 117.5,259C 117.5,260.667 117.5,262.333 117.5,264C 116.552,264.483 115.552,264.649 114.5,264.5C 114.5,262.5 114.5,260.5 114.5,258.5 Z"/></g>
<g><path style="opacity:1" fill="#786943" d="M 137.5,258.5 C 138.552,258.351 139.552,258.517 140.5,259C 137.972,260.017 137.972,261.184 140.5,262.5C 140.376,263.107 140.043,263.44 139.5,263.5C 139.565,263.062 139.399,262.728 139,262.5C 138.667,263.167 138.333,263.833 138,264.5C 137.505,262.527 137.338,260.527 137.5,258.5 Z"/></g>
<g><path style="opacity:1" fill="#6b6040" d="M 145.5,258.5 C 146.5,258.5 147.5,258.5 148.5,258.5C 148.725,260.716 147.892,262.383 146,263.5C 145.506,261.866 145.34,260.199 145.5,258.5 Z"/></g>
<g><path style="opacity:1" fill="#5f583d" d="M 155.5,258.5 C 159.071,258.408 160.238,260.074 159,263.5C 158,264.833 157,264.833 156,263.5C 155.506,261.866 155.34,260.199 155.5,258.5 Z"/></g>
<g><path style="opacity:1" fill="#847d54" d="M 171.5,258.5 C 172.478,258.811 173.145,259.478 173.5,260.5C 171.841,265.265 171.174,264.598 171.5,258.5 Z"/></g>
<g><path style="opacity:1" fill="#8f8a5e" d="M 187.5,259.5 C 186.414,259.62 185.747,260.287 185.5,261.5C 185.747,262.713 186.414,263.38 187.5,263.5C 186.791,264.404 185.791,264.737 184.5,264.5C 184.5,262.5 184.5,260.5 184.5,258.5C 185.791,258.263 186.791,258.596 187.5,259.5 Z"/></g>
<g><path style="opacity:1" fill="#1a1b1a" d="M 187.5,259.5 C 187.5,260.833 187.5,262.167 187.5,263.5C 186.414,263.38 185.747,262.713 185.5,261.5C 185.747,260.287 186.414,259.62 187.5,259.5 Z"/></g>
<g><path style="opacity:1" fill="#534c37" d="M 235.5,258.5 C 237.484,258.484 238.484,259.484 238.5,261.5C 237.167,265.5 235.833,265.5 234.5,261.5C 234.685,260.416 235.018,259.416 235.5,258.5 Z"/></g>
<g><path style="opacity:1" fill="#6e5a35" d="M 110.5,258.5 C 113.598,258.413 113.932,258.913 111.5,260C 112.28,261.073 112.113,262.24 111,263.5C 110.506,261.866 110.34,260.199 110.5,258.5 Z"/></g>
<g><path style="opacity:1" fill="#605c42" d="M 177.5,258.5 C 179.185,259.184 180.185,260.517 180.5,262.5C 179.421,264.876 178.088,265.043 176.5,263C 178.991,262.374 178.991,261.541 176.5,260.5C 176.863,259.817 177.196,259.15 177.5,258.5 Z"/></g>
<g><path style="opacity:1" fill="#615e44" d="M 200.5,258.5 C 202.185,259.184 203.185,260.517 203.5,262.5C 202.421,264.876 201.088,265.043 199.5,263C 201.991,262.374 201.991,261.541 199.5,260.5C 199.863,259.817 200.196,259.15 200.5,258.5 Z"/></g>
<g><path style="opacity:1" fill="#685838" d="M 262.5,258.5 C 263.741,260.931 264.908,260.931 266,258.5C 266.667,260.5 266.667,262.5 266,264.5C 265.395,262.519 264.395,262.185 263,263.5C 262.506,261.866 262.34,260.199 262.5,258.5 Z"/></g>
<g><path style="opacity:1" fill="#615a3f" d="M 161.5,259.5 C 162.586,259.62 163.253,260.287 163.5,261.5C 163.167,262.167 162.833,262.833 162.5,263.5C 161.571,262.311 161.238,260.978 161.5,259.5 Z"/></g>
<g><path style="opacity:1" fill="#827b54" d="M 210.5,258.5 C 211.441,261.125 212.607,261.125 214,258.5C 214.236,260.3 213.736,261.966 212.5,263.5C 211.158,262.098 210.324,262.431 210,264.5C 208.813,262.956 208.48,261.289 209,259.5C 210.087,261.932 210.587,261.598 210.5,258.5 Z"/></g>
<g><path style="opacity:1" fill="#827a52" d="M 215.5,258.5 C 216.741,260.931 217.908,260.931 219,258.5C 219.667,260.167 219.667,261.833 219,263.5C 218,262.167 217,262.167 216,263.5C 215.506,261.866 215.34,260.199 215.5,258.5 Z"/></g>
<g><path style="opacity:1" fill="#6b6040" d="M 239.5,258.5 C 240.458,258.953 241.292,259.619 242,260.5C 242.333,259.833 242.667,259.167 243,258.5C 242.234,265.077 241.067,265.077 239.5,258.5 Z"/></g>
<g><path style="opacity:1" fill="#796b45" d="M 245.5,258.5 C 246.239,258.369 246.906,258.536 247.5,259C 247.011,260.809 246.677,262.643 246.5,264.5C 245.534,262.604 245.201,260.604 245.5,258.5 Z"/></g>
<g><path style="opacity:1" fill="#87835b" d="M 190.5,258.5 C 193.598,258.413 193.932,258.913 191.5,260C 192.641,260.741 192.641,261.575 191.5,262.5C 194.131,264.005 193.797,264.671 190.5,264.5C 190.5,262.5 190.5,260.5 190.5,258.5 Z"/></g>
<g><path style="opacity:1" fill="#504e3a" d="M 194.5,258.5 C 198.068,258.759 199.401,260.759 198.5,264.5C 197.167,264.5 195.833,264.5 194.5,264.5C 194.5,262.5 194.5,260.5 194.5,258.5 Z"/></g>
<g><path style="opacity:1" fill="#655f42" d="M 221.5,258.5 C 225.35,258.701 226.35,260.534 224.5,264C 223.552,264.483 222.552,264.649 221.5,264.5C 221.5,262.5 221.5,260.5 221.5,258.5 Z"/></g>
<g><path style="opacity:1" fill="#9e844d" d="M 38.5,300.5 C 38.5,300.167 38.5,299.833 38.5,299.5C 67.1667,299.5 95.8333,299.5 124.5,299.5C 110.5,300.167 96.5,300.833 82.5,301.5C 68.8333,301.5 55.1667,301.5 41.5,301.5C 40.791,300.596 39.791,300.263 38.5,300.5 Z"/></g>
<g><path style="opacity:1" fill="#cbbe7a" d="M 124.5,299.5 C 140.833,299.5 157.167,299.5 173.5,299.5C 194.5,299.5 215.5,299.5 236.5,299.5C 244.167,300.167 251.833,300.833 259.5,301.5C 200.5,301.5 141.5,301.5 82.5,301.5C 96.5,300.833 110.5,300.167 124.5,299.5 Z"/></g>
<g><path style="opacity:1" fill="#aa8c4f" d="M 236.5,299.5 C 265.833,299.5 295.167,299.5 324.5,299.5C 331.648,300.492 338.981,300.825 346.5,300.5C 346.5,300.833 346.5,301.167 346.5,301.5C 317.5,301.5 288.5,301.5 259.5,301.5C 251.833,300.833 244.167,300.167 236.5,299.5 Z"/></g>
<g><path style="opacity:1" fill="#9b814b" d="M 228.5,304.5 C 267.833,304.5 307.167,304.5 346.5,304.5C 348.265,305.461 350.265,305.795 352.5,305.5C 352.5,305.833 352.5,306.167 352.5,306.5C 339.167,306.5 325.833,306.5 312.5,306.5C 284.5,305.833 256.5,305.167 228.5,304.5 Z"/></g>
<g><path style="opacity:1" fill="#bda664" d="M 65.5,304.5 C 119.833,304.5 174.167,304.5 228.5,304.5C 256.5,305.167 284.5,305.833 312.5,306.5C 268.833,306.5 225.167,306.5 181.5,306.5C 127.5,306.5 73.5,306.5 19.5,306.5C 19.5,306.167 19.5,305.833 19.5,305.5C 35.0091,305.83 50.3424,305.496 65.5,304.5 Z"/></g>
<g><path style="opacity:1" fill="#1d1d1d" d="M 381.5,230.5 C 382.031,231.795 383.364,232.462 385.5,232.5C 385.5,258.833 385.5,285.167 385.5,311.5C 318.833,311.5 252.167,311.5 185.5,311.5C 183.708,310.691 181.708,310.191 179.5,310C 180.167,309.667 180.833,309.333 181.5,309C 180.167,308.667 178.833,308.333 177.5,308C 179.058,307.79 180.391,307.29 181.5,306.5C 225.167,306.5 268.833,306.5 312.5,306.5C 325.833,306.5 339.167,306.5 352.5,306.5C 362.167,306.5 371.833,306.5 381.5,306.5C 381.5,281.167 381.5,255.833 381.5,230.5 Z"/></g>
</svg>
